<svg width="18" height="18" viewBox="0 0 18 18" fill="none" xmlns="http://www.w3.org/2000/svg">
<g clip-path="url(#clip0_68_904)">
<path d="M15.3639 2.63606C13.664 0.936078 11.4039 0 9 0C6.59615 0 4.33604 0.936078 2.63606 2.63606C0.936078 4.33572 0 6.59615 0 9C0 11.4039 0.936078 13.664 2.63606 15.3639C4.33604 17.0639 6.59615 18 9 18C11.4039 18 13.664 17.0639 15.3639 15.3639C17.0639 13.664 18 11.4039 18 9C18 6.59615 17.0639 4.33604 15.3639 2.63606ZM16.4791 9C16.4791 13.1241 13.1241 16.4791 9 16.4791C4.87595 16.4791 1.52085 13.1241 1.52085 9C1.52085 4.87595 4.87595 1.52085 9 1.52085C13.1241 1.52085 16.4791 4.87595 16.4791 9Z" fill="#BAC3E6"/>
<path d="M12.2969 6.30132L8.05695 10.5413L6.7007 9.18506C6.31717 8.80153 5.69511 8.80153 5.31127 9.18506C4.92774 9.56859 4.92774 10.1906 5.31127 10.5745L7.36224 12.6255C7.74577 13.009 8.36782 13.009 8.75166 12.6255L13.6864 7.69075C14.0699 7.30722 14.0699 6.68517 13.6864 6.30132C13.3028 5.91779 12.6808 5.91779 12.2969 6.30132Z" fill="#BAC3E6"/>
</g>
<defs>
<clipPath id="clip0_68_904">
<rect width="18" height="18" fill="white"/>
</clipPath>
</defs>
</svg>
