<svg width="20" height="20" viewBox="0 0 20 20" fill="none" xmlns="http://www.w3.org/2000/svg">
<path d="M18.05 15.864L15.358 13.172C16.136 11.986 16.588 10.568 16.588 9.044C16.588 4.876 13.21 1.498 9.04197 1.498C4.87397 1.498 1.49597 4.876 1.49597 9.044C1.49597 13.212 4.87397 16.59 9.04197 16.59C10.566 16.59 11.984 16.136 13.17 15.36L15.862 18.052C16.466 18.656 17.446 18.656 18.048 18.052C18.652 17.448 18.652 16.468 18.048 15.866L18.05 15.864ZM9.04197 14.668C5.93597 14.668 3.41597 12.15 3.41597 9.042C3.41597 5.934 5.93397 3.416 9.04197 3.416C12.148 3.416 14.668 5.934 14.668 9.042C14.668 12.15 12.15 14.668 9.04197 14.668ZM9.46197 5.106C9.46197 5.338 9.27397 5.526 9.04197 5.526C7.10397 5.526 5.52597 7.104 5.52597 9.042C5.52597 9.274 5.33797 9.462 5.10597 9.462C4.87397 9.462 4.68597 9.274 4.68597 9.042C4.68597 6.64 6.63997 4.686 9.04197 4.686C9.27397 4.686 9.46197 4.874 9.46197 5.106Z" fill="#144037"/>
</svg>
