<svg width="24" height="24" viewBox="0 0 24 24" fill="none" xmlns="http://www.w3.org/2000/svg">
<path d="M3.60972 1.81348L13.793 11.9995L3.61082 22.1859C3.41776 22.1043 3.24866 21.9615 3.13555 21.7662C3.0474 21.6139 3.00098 21.4411 3.00098 21.2651V2.73405C3.00098 2.32061 3.25188 1.96577 3.60972 1.81348ZM14.5 12.7065L16.802 15.0085L5.86498 21.3415L14.5 12.7065ZM17.699 9.50848L20.5061 11.1342C20.9841 11.4109 21.1473 12.0227 20.8705 12.5006C20.783 12.6518 20.6574 12.7775 20.5061 12.865L17.698 14.4905L15.207 11.9995L17.699 9.50848ZM5.86498 2.65748L16.803 8.98948L14.5 11.2925L5.86498 2.65748Z" fill="#383838"/>
</svg>
