<svg width="168" height="54" viewBox="0 0 168 54" fill="none" xmlns="http://www.w3.org/2000/svg">
<g clip-path="url(#clip0_68_951)">
<path d="M5.53684 43.0277C4.94176 42.0248 3.45505 42.1402 3.02118 43.2228L0.191063 50.2951C0.191063 50.2951 0.185092 50.3091 0.183102 50.315C0.0656779 50.6215 0 50.9538 0 51.3001C0 52.7846 1.27574 53.9985 2.76046 53.9985H9.57305C10.6637 53.9985 11.3384 52.8125 10.7831 51.8752L5.53684 43.0258V43.0277Z" fill="#8892B2"/>
<path d="M37.8941 1.69148V1.69546C37.512 0.738281 36.6005 0.0517394 35.5198 0H23.9704L44.8659 52.2309C45.2938 53.2995 46.3268 54 47.4771 54H54.7515C56.6999 54 58.0334 52.0319 57.3089 50.223L37.8941 1.69148Z" fill="#ADB5CE"/>
<path d="M22.0518 0C20.9154 0 19.9442 0.700472 19.5441 1.69546L8.71525 28.785L6.18964 35.0992C6.18964 35.0992 6.18765 35.1052 6.18566 35.1072C6.01052 35.541 5.94683 36.0305 6.02644 36.5419C6.22745 37.8454 7.37781 38.8145 8.69734 38.8125C8.70331 38.8125 8.70928 38.8125 8.71724 38.8125H18.0375H22.026C20.5353 38.8125 19.3252 37.6046 19.3252 36.1121C19.3252 35.7579 19.3929 35.4196 19.5163 35.1111L22.0459 28.787L32.8807 1.6875V1.69944C33.2788 0.704452 34.25 0 35.3864 0L22.0518 0Z" fill="#8892B2"/>
<path d="M52.9582 26.248H23.0629L19.5222 35.1094C19.3989 35.4198 19.3312 35.7562 19.3312 36.1104C19.3312 37.6009 20.5393 38.8108 22.0319 38.8108H55.8202C57.7687 38.8108 59.1021 36.8447 58.3777 35.0358L55.5714 28.0171C55.1435 26.9485 54.1106 26.248 52.9602 26.248H52.9582Z" fill="#F4F4F5"/>
<path d="M85.3673 3.74678H81.4147L73.7065 21.0377H77.8084L79.3408 17.3323H87.3695L88.902 21.0377H93.1014L85.3693 3.74678H85.3673ZM80.6226 14.2937L83.3651 7.673L86.1077 14.2937H80.6226ZM118.248 10.7117C119.458 10.7117 120.521 11.2808 121.237 12.5405L124.227 10.9346C123.263 8.76152 121.064 7.54962 118.272 7.54962C113.949 7.54962 110.86 10.3913 110.86 14.3912C110.86 18.391 113.949 21.2327 118.272 21.2327C121.064 21.2327 123.261 19.9969 124.227 17.8736L121.237 16.2438C120.521 17.5274 119.458 18.0726 118.248 18.0726C116.296 18.0726 114.765 16.7135 114.765 14.3912C114.765 12.0689 116.298 10.7097 118.248 10.7097V10.7117ZM108.217 21.0377V13.43C108.217 9.37841 105.845 7.55161 102.708 7.55161C100.905 7.55161 99.3487 8.1685 98.3118 9.30478V7.74862H94.6299V21.0377H98.483V14.4668C98.483 12.0211 99.8164 10.8848 101.669 10.8848C103.373 10.8848 104.362 11.8719 104.362 14.021V21.0357H108.215L108.217 21.0377ZM149.893 21.2347C154.118 21.2347 157.181 18.393 157.181 14.3932C157.181 10.3933 154.118 7.55161 149.893 7.55161C145.668 7.55161 142.581 10.3933 142.581 14.3932C142.581 18.393 145.67 21.2347 149.893 21.2347ZM149.893 10.7117C151.819 10.7117 153.278 12.0947 153.278 14.3932C153.278 16.6916 151.821 18.0746 149.893 18.0746C147.964 18.0746 146.484 16.6916 146.484 14.3932C146.484 12.0947 147.966 10.7117 149.893 10.7117ZM163.43 9.50179V7.74862H159.748V21.0377H163.602V14.7633C163.602 12.2181 165.011 11.0579 167.134 11.0579C167.431 11.0579 167.678 11.0818 167.998 11.1077V7.54962C165.948 7.54962 164.366 8.21626 163.428 9.50179H163.43ZM136.083 14.021V21.0357H139.936V13.428C139.936 9.37642 137.563 7.54962 134.427 7.54962C132.721 7.54962 131.24 8.09288 130.201 9.12966V2.70801H126.348V21.0357H130.201V14.4648C130.201 12.0191 131.535 10.8828 133.388 10.8828C135.093 10.8828 136.081 11.8699 136.081 14.019L136.083 14.021ZM98.3556 32.8144C96.5524 32.8144 94.9961 33.4313 93.9592 34.5675V33.0114H90.2772V46.3004H94.1303V39.7295C94.1303 37.2839 95.4638 36.1476 97.3167 36.1476C99.0203 36.1476 100.009 37.1346 100.009 39.2838V46.2984H103.863V38.6908C103.863 34.6392 101.49 32.8124 98.3536 32.8124L98.3556 32.8144ZM77.6292 39.0888H85.6579V35.9764H77.6292V32.2213H86.7207V29.0095H73.6508V46.3004H87.0411V43.0886H77.6292V39.0868V39.0888ZM133.189 46.3004H137.042V33.0114H133.189V46.3004ZM117.872 34.7168C116.859 33.4313 115.326 32.8144 113.475 32.8144C109.793 32.8144 106.83 35.3595 106.83 39.236C106.83 43.1125 109.795 45.6577 113.475 45.6577C115.205 45.6577 116.662 45.1144 117.675 44.002V44.5692C117.675 46.9651 116.489 48.2009 113.772 48.2009C112.068 48.2009 110.213 47.6078 109.079 46.6945L107.547 49.4605C109.103 50.6704 111.549 51.2893 114.069 51.2893C118.861 51.2893 121.53 49.0168 121.53 44.0756V33.0094H117.874V34.7148L117.872 34.7168ZM114.24 42.4976C112.214 42.4976 110.731 41.1882 110.731 39.238C110.731 37.2878 112.214 35.9764 114.24 35.9764C116.266 35.9764 117.723 37.2858 117.723 39.238C117.723 41.1902 116.266 42.4976 114.24 42.4976ZM162.463 32.8144C160.758 32.8144 159.277 33.3576 158.238 34.3944V27.9728H154.385V46.3004H158.238V39.7295C158.238 37.2839 159.571 36.1476 161.424 36.1476C163.13 36.1476 164.117 37.1346 164.117 39.2838V46.2984H167.97V38.6908C167.97 34.6392 165.598 32.8124 162.461 32.8124L162.463 32.8144ZM143.661 36.9635C143.661 36.271 144.402 35.7277 146.131 35.7277C147.341 35.7277 148.651 35.9744 149.96 36.7167L151.244 33.9745C149.984 33.2342 147.958 32.8144 146.131 32.8144C142.252 32.8144 139.979 34.5934 139.979 37.1127C139.979 42.424 148.008 40.2012 148.008 42.3742C148.008 43.1145 147.341 43.5841 145.562 43.5841C143.932 43.5841 142.129 43.0647 140.943 42.2986L139.657 45.0647C140.893 45.8806 143.166 46.4974 145.413 46.4974C149.389 46.4974 151.688 44.7443 151.688 42.2727C151.688 37.0351 143.659 39.234 143.659 36.9615L143.661 36.9635ZM135.115 26.8604C133.682 26.8604 132.719 27.7996 132.719 29.0095C132.719 30.2194 133.682 31.1587 135.115 31.1587C136.548 31.1587 137.512 30.2194 137.512 28.9359C137.512 27.7499 136.548 26.8604 135.115 26.8604ZM125.431 46.3004H129.284V27.9728H125.431V46.3004Z" fill="#ADB5CE"/>
</g>
<defs>
<clipPath id="clip0_68_951">
<rect width="168" height="54" fill="white"/>
</clipPath>
</defs>
</svg>
