<svg width="80" height="80" viewBox="0 0 80 80" fill="none" xmlns="http://www.w3.org/2000/svg">
<g clip-path="url(#clip0_135_2)">
<path d="M80 0H0V80H80V0Z" fill="white"/>
<path d="M19.5555 3.55566H17.7777V5.33344H19.5555V3.55566Z" fill="black"/>
<path d="M21.3333 3.55566H19.5555V5.33344H21.3333V3.55566Z" fill="black"/>
<path d="M24.8889 3.55566H23.1111V5.33344H24.8889V3.55566Z" fill="black"/>
<path d="M33.7778 3.55566H32V5.33344H33.7778V3.55566Z" fill="black"/>
<path d="M35.5555 3.55566H33.7777V5.33344H35.5555V3.55566Z" fill="black"/>
<path d="M37.3333 3.55566H35.5555V5.33344H37.3333V3.55566Z" fill="black"/>
<path d="M40.8889 3.55566H39.1111V5.33344H40.8889V3.55566Z" fill="black"/>
<path d="M42.6667 3.55566H40.8889V5.33344H42.6667V3.55566Z" fill="black"/>
<path d="M46.2222 3.55566H44.4445V5.33344H46.2222V3.55566Z" fill="black"/>
<path d="M47.9999 3.55566H46.2222V5.33344H47.9999V3.55566Z" fill="black"/>
<path d="M53.3333 3.55566H51.5555V5.33344H53.3333V3.55566Z" fill="black"/>
<path d="M55.1112 3.55566H53.3334V5.33344H55.1112V3.55566Z" fill="black"/>
<path d="M60.4444 3.55566H58.6666V5.33344H60.4444V3.55566Z" fill="black"/>
<path d="M19.5555 5.33301H17.7777V7.11079H19.5555V5.33301Z" fill="black"/>
<path d="M26.6667 5.33301H24.8889V7.11079H26.6667V5.33301Z" fill="black"/>
<path d="M28.4444 5.33301H26.6666V7.11079H28.4444V5.33301Z" fill="black"/>
<path d="M30.2222 5.33301H28.4445V7.11079H30.2222V5.33301Z" fill="black"/>
<path d="M37.3333 5.33301H35.5555V7.11079H37.3333V5.33301Z" fill="black"/>
<path d="M46.2222 5.33301H44.4445V7.11079H46.2222V5.33301Z" fill="black"/>
<path d="M49.7778 5.33301H48V7.11079H49.7778V5.33301Z" fill="black"/>
<path d="M55.1112 5.33301H53.3334V7.11079H55.1112V5.33301Z" fill="black"/>
<path d="M56.8889 5.33301H55.1111V7.11079H56.8889V5.33301Z" fill="black"/>
<path d="M58.6667 5.33301H56.8889V7.11079H58.6667V5.33301Z" fill="black"/>
<path d="M62.2222 5.33301H60.4445V7.11079H62.2222V5.33301Z" fill="black"/>
<path d="M23.1112 7.11133H21.3334V8.88911H23.1112V7.11133Z" fill="black"/>
<path d="M26.6667 7.11133H24.8889V8.88911H26.6667V7.11133Z" fill="black"/>
<path d="M35.5555 7.11133H33.7777V8.88911H35.5555V7.11133Z" fill="black"/>
<path d="M39.1112 7.11133H37.3334V8.88911H39.1112V7.11133Z" fill="black"/>
<path d="M40.8889 7.11133H39.1111V8.88911H40.8889V7.11133Z" fill="black"/>
<path d="M46.2222 7.11133H44.4445V8.88911H46.2222V7.11133Z" fill="black"/>
<path d="M47.9999 7.11133H46.2222V8.88911H47.9999V7.11133Z" fill="black"/>
<path d="M49.7778 7.11133H48V8.88911H49.7778V7.11133Z" fill="black"/>
<path d="M58.6667 7.11133H56.8889V8.88911H58.6667V7.11133Z" fill="black"/>
<path d="M19.5555 8.88867H17.7777V10.6664H19.5555V8.88867Z" fill="black"/>
<path d="M21.3333 8.88867H19.5555V10.6664H21.3333V8.88867Z" fill="black"/>
<path d="M24.8889 8.88867H23.1111V10.6664H24.8889V8.88867Z" fill="black"/>
<path d="M26.6667 8.88867H24.8889V10.6664H26.6667V8.88867Z" fill="black"/>
<path d="M30.2222 8.88867H28.4445V10.6664H30.2222V8.88867Z" fill="black"/>
<path d="M31.9999 8.88867H30.2222V10.6664H31.9999V8.88867Z" fill="black"/>
<path d="M42.6667 8.88867H40.8889V10.6664H42.6667V8.88867Z" fill="black"/>
<path d="M47.9999 8.88867H46.2222V10.6664H47.9999V8.88867Z" fill="black"/>
<path d="M49.7778 8.88867H48V10.6664H49.7778V8.88867Z" fill="black"/>
<path d="M53.3333 8.88867H51.5555V10.6664H53.3333V8.88867Z" fill="black"/>
<path d="M56.8889 8.88867H55.1111V10.6664H56.8889V8.88867Z" fill="black"/>
<path d="M58.6667 8.88867H56.8889V10.6664H58.6667V8.88867Z" fill="black"/>
<path d="M62.2222 8.88867H60.4445V10.6664H62.2222V8.88867Z" fill="black"/>
<path d="M21.3333 10.667H19.5555V12.4448H21.3333V10.667Z" fill="black"/>
<path d="M23.1112 10.667H21.3334V12.4448H23.1112V10.667Z" fill="black"/>
<path d="M24.8889 10.667H23.1111V12.4448H24.8889V10.667Z" fill="black"/>
<path d="M26.6667 10.667H24.8889V12.4448H26.6667V10.667Z" fill="black"/>
<path d="M30.2222 10.667H28.4445V12.4448H30.2222V10.667Z" fill="black"/>
<path d="M31.9999 10.667H30.2222V12.4448H31.9999V10.667Z" fill="black"/>
<path d="M33.7778 10.667H32V12.4448H33.7778V10.667Z" fill="black"/>
<path d="M42.6667 10.667H40.8889V12.4448H42.6667V10.667Z" fill="black"/>
<path d="M44.4444 10.667H42.6666V12.4448H44.4444V10.667Z" fill="black"/>
<path d="M55.1112 10.667H53.3334V12.4448H55.1112V10.667Z" fill="black"/>
<path d="M56.8889 10.667H55.1111V12.4448H56.8889V10.667Z" fill="black"/>
<path d="M58.6667 10.667H56.8889V12.4448H58.6667V10.667Z" fill="black"/>
<path d="M60.4444 10.667H58.6666V12.4448H60.4444V10.667Z" fill="black"/>
<path d="M62.2222 10.667H60.4445V12.4448H62.2222V10.667Z" fill="black"/>
<path d="M21.3333 12.4443H19.5555V14.2221H21.3333V12.4443Z" fill="black"/>
<path d="M23.1112 12.4443H21.3334V14.2221H23.1112V12.4443Z" fill="black"/>
<path d="M33.7778 12.4443H32V14.2221H33.7778V12.4443Z" fill="black"/>
<path d="M35.5555 12.4443H33.7777V14.2221H35.5555V12.4443Z" fill="black"/>
<path d="M39.1112 12.4443H37.3334V14.2221H39.1112V12.4443Z" fill="black"/>
<path d="M40.8889 12.4443H39.1111V14.2221H40.8889V12.4443Z" fill="black"/>
<path d="M42.6667 12.4443H40.8889V14.2221H42.6667V12.4443Z" fill="black"/>
<path d="M49.7778 12.4443H48V14.2221H49.7778V12.4443Z" fill="black"/>
<path d="M60.4444 12.4443H58.6666V14.2221H60.4444V12.4443Z" fill="black"/>
<path d="M62.2222 12.4443H60.4445V14.2221H62.2222V12.4443Z" fill="black"/>
<path d="M19.5555 14.2227H17.7777V16.0004H19.5555V14.2227Z" fill="black"/>
<path d="M23.1112 14.2227H21.3334V16.0004H23.1112V14.2227Z" fill="black"/>
<path d="M26.6667 14.2227H24.8889V16.0004H26.6667V14.2227Z" fill="black"/>
<path d="M30.2222 14.2227H28.4445V16.0004H30.2222V14.2227Z" fill="black"/>
<path d="M33.7778 14.2227H32V16.0004H33.7778V14.2227Z" fill="black"/>
<path d="M37.3333 14.2227H35.5555V16.0004H37.3333V14.2227Z" fill="black"/>
<path d="M40.8889 14.2227H39.1111V16.0004H40.8889V14.2227Z" fill="black"/>
<path d="M44.4444 14.2227H42.6666V16.0004H44.4444V14.2227Z" fill="black"/>
<path d="M47.9999 14.2227H46.2222V16.0004H47.9999V14.2227Z" fill="black"/>
<path d="M51.5555 14.2227H49.7777V16.0004H51.5555V14.2227Z" fill="black"/>
<path d="M55.1112 14.2227H53.3334V16.0004H55.1112V14.2227Z" fill="black"/>
<path d="M58.6667 14.2227H56.8889V16.0004H58.6667V14.2227Z" fill="black"/>
<path d="M62.2222 14.2227H60.4445V16.0004H62.2222V14.2227Z" fill="black"/>
<path d="M19.5555 16H17.7777V17.7778H19.5555V16Z" fill="black"/>
<path d="M23.1112 16H21.3334V17.7778H23.1112V16Z" fill="black"/>
<path d="M26.6667 16H24.8889V17.7778H26.6667V16Z" fill="black"/>
<path d="M35.5555 16H33.7777V17.7778H35.5555V16Z" fill="black"/>
<path d="M37.3333 16H35.5555V17.7778H37.3333V16Z" fill="black"/>
<path d="M55.1112 16H53.3334V17.7778H55.1112V16Z" fill="black"/>
<path d="M56.8889 16H55.1111V17.7778H56.8889V16Z" fill="black"/>
<path d="M58.6667 16H56.8889V17.7778H58.6667V16Z" fill="black"/>
<path d="M62.2222 16H60.4445V17.7778H62.2222V16Z" fill="black"/>
<path d="M5.33332 17.7783H3.55554V19.5561H5.33332V17.7783Z" fill="black"/>
<path d="M8.88886 17.7783H7.11108V19.5561H8.88886V17.7783Z" fill="black"/>
<path d="M10.6667 17.7783H8.88892V19.5561H10.6667V17.7783Z" fill="black"/>
<path d="M14.2222 17.7783H12.4445V19.5561H14.2222V17.7783Z" fill="black"/>
<path d="M15.9999 17.7783H14.2222V19.5561H15.9999V17.7783Z" fill="black"/>
<path d="M17.7778 17.7783H16V19.5561H17.7778V17.7783Z" fill="black"/>
<path d="M21.3333 17.7783H19.5555V19.5561H21.3333V17.7783Z" fill="black"/>
<path d="M26.6667 17.7783H24.8889V19.5561H26.6667V17.7783Z" fill="black"/>
<path d="M28.4444 17.7783H26.6666V19.5561H28.4444V17.7783Z" fill="black"/>
<path d="M31.9999 17.7783H30.2222V19.5561H31.9999V17.7783Z" fill="black"/>
<path d="M33.7778 17.7783H32V19.5561H33.7778V17.7783Z" fill="black"/>
<path d="M35.5555 17.7783H33.7777V19.5561H35.5555V17.7783Z" fill="black"/>
<path d="M37.3333 17.7783H35.5555V19.5561H37.3333V17.7783Z" fill="black"/>
<path d="M39.1112 17.7783H37.3334V19.5561H39.1112V17.7783Z" fill="black"/>
<path d="M42.6667 17.7783H40.8889V19.5561H42.6667V17.7783Z" fill="black"/>
<path d="M51.5555 17.7783H49.7777V19.5561H51.5555V17.7783Z" fill="black"/>
<path d="M55.1112 17.7783H53.3334V19.5561H55.1112V17.7783Z" fill="black"/>
<path d="M56.8889 17.7783H55.1111V19.5561H56.8889V17.7783Z" fill="black"/>
<path d="M58.6667 17.7783H56.8889V19.5561H58.6667V17.7783Z" fill="black"/>
<path d="M65.7778 17.7783H64V19.5561H65.7778V17.7783Z" fill="black"/>
<path d="M71.1112 17.7783H69.3334V19.5561H71.1112V17.7783Z" fill="black"/>
<path d="M74.6667 17.7783H72.8889V19.5561H74.6667V17.7783Z" fill="black"/>
<path d="M76.4444 17.7783H74.6666V19.5561H76.4444V17.7783Z" fill="black"/>
<path d="M5.33332 19.5557H3.55554V21.3334H5.33332V19.5557Z" fill="black"/>
<path d="M7.11115 19.5557H5.33337V21.3334H7.11115V19.5557Z" fill="black"/>
<path d="M8.88886 19.5557H7.11108V21.3334H8.88886V19.5557Z" fill="black"/>
<path d="M12.4444 19.5557H10.6666V21.3334H12.4444V19.5557Z" fill="black"/>
<path d="M14.2222 19.5557H12.4445V21.3334H14.2222V19.5557Z" fill="black"/>
<path d="M17.7778 19.5557H16V21.3334H17.7778V19.5557Z" fill="black"/>
<path d="M19.5555 19.5557H17.7777V21.3334H19.5555V19.5557Z" fill="black"/>
<path d="M21.3333 19.5557H19.5555V21.3334H21.3333V19.5557Z" fill="black"/>
<path d="M30.2222 19.5557H28.4445V21.3334H30.2222V19.5557Z" fill="black"/>
<path d="M39.1112 19.5557H37.3334V21.3334H39.1112V19.5557Z" fill="black"/>
<path d="M40.8889 19.5557H39.1111V21.3334H40.8889V19.5557Z" fill="black"/>
<path d="M42.6667 19.5557H40.8889V21.3334H42.6667V19.5557Z" fill="black"/>
<path d="M46.2222 19.5557H44.4445V21.3334H46.2222V19.5557Z" fill="black"/>
<path d="M47.9999 19.5557H46.2222V21.3334H47.9999V19.5557Z" fill="black"/>
<path d="M51.5555 19.5557H49.7777V21.3334H51.5555V19.5557Z" fill="black"/>
<path d="M55.1112 19.5557H53.3334V21.3334H55.1112V19.5557Z" fill="black"/>
<path d="M60.4444 19.5557H58.6666V21.3334H60.4444V19.5557Z" fill="black"/>
<path d="M62.2222 19.5557H60.4445V21.3334H62.2222V19.5557Z" fill="black"/>
<path d="M63.9999 19.5557H62.2222V21.3334H63.9999V19.5557Z" fill="black"/>
<path d="M67.5555 19.5557H65.7777V21.3334H67.5555V19.5557Z" fill="black"/>
<path d="M69.3333 19.5557H67.5555V21.3334H69.3333V19.5557Z" fill="black"/>
<path d="M72.8889 19.5557H71.1111V21.3334H72.8889V19.5557Z" fill="black"/>
<path d="M74.6667 19.5557H72.8889V21.3334H74.6667V19.5557Z" fill="black"/>
<path d="M76.4444 19.5557H74.6666V21.3334H76.4444V19.5557Z" fill="black"/>
<path d="M5.33332 21.333H3.55554V23.1108H5.33332V21.333Z" fill="black"/>
<path d="M7.11115 21.333H5.33337V23.1108H7.11115V21.333Z" fill="black"/>
<path d="M8.88886 21.333H7.11108V23.1108H8.88886V21.333Z" fill="black"/>
<path d="M10.6667 21.333H8.88892V23.1108H10.6667V21.333Z" fill="black"/>
<path d="M15.9999 21.333H14.2222V23.1108H15.9999V21.333Z" fill="black"/>
<path d="M23.1112 21.333H21.3334V23.1108H23.1112V21.333Z" fill="black"/>
<path d="M24.8889 21.333H23.1111V23.1108H24.8889V21.333Z" fill="black"/>
<path d="M30.2222 21.333H28.4445V23.1108H30.2222V21.333Z" fill="black"/>
<path d="M33.7778 21.333H32V23.1108H33.7778V21.333Z" fill="black"/>
<path d="M44.4444 21.333H42.6666V23.1108H44.4444V21.333Z" fill="black"/>
<path d="M46.2222 21.333H44.4445V23.1108H46.2222V21.333Z" fill="black"/>
<path d="M47.9999 21.333H46.2222V23.1108H47.9999V21.333Z" fill="black"/>
<path d="M56.8889 21.333H55.1111V23.1108H56.8889V21.333Z" fill="black"/>
<path d="M58.6667 21.333H56.8889V23.1108H58.6667V21.333Z" fill="black"/>
<path d="M63.9999 21.333H62.2222V23.1108H63.9999V21.333Z" fill="black"/>
<path d="M65.7778 21.333H64V23.1108H65.7778V21.333Z" fill="black"/>
<path d="M72.8889 21.333H71.1111V23.1108H72.8889V21.333Z" fill="black"/>
<path d="M8.88886 23.1113H7.11108V24.8891H8.88886V23.1113Z" fill="black"/>
<path d="M10.6667 23.1113H8.88892V24.8891H10.6667V23.1113Z" fill="black"/>
<path d="M19.5555 23.1113H17.7777V24.8891H19.5555V23.1113Z" fill="black"/>
<path d="M24.8889 23.1113H23.1111V24.8891H24.8889V23.1113Z" fill="black"/>
<path d="M33.7778 23.1113H32V24.8891H33.7778V23.1113Z" fill="black"/>
<path d="M37.3333 23.1113H35.5555V24.8891H37.3333V23.1113Z" fill="black"/>
<path d="M40.8889 23.1113H39.1111V24.8891H40.8889V23.1113Z" fill="black"/>
<path d="M47.9999 23.1113H46.2222V24.8891H47.9999V23.1113Z" fill="black"/>
<path d="M49.7778 23.1113H48V24.8891H49.7778V23.1113Z" fill="black"/>
<path d="M51.5555 23.1113H49.7777V24.8891H51.5555V23.1113Z" fill="black"/>
<path d="M53.3333 23.1113H51.5555V24.8891H53.3333V23.1113Z" fill="black"/>
<path d="M58.6667 23.1113H56.8889V24.8891H58.6667V23.1113Z" fill="black"/>
<path d="M62.2222 23.1113H60.4445V24.8891H62.2222V23.1113Z" fill="black"/>
<path d="M63.9999 23.1113H62.2222V24.8891H63.9999V23.1113Z" fill="black"/>
<path d="M67.5555 23.1113H65.7777V24.8891H67.5555V23.1113Z" fill="black"/>
<path d="M5.33332 24.8887H3.55554V26.6664H5.33332V24.8887Z" fill="black"/>
<path d="M12.4444 24.8887H10.6666V26.6664H12.4444V24.8887Z" fill="black"/>
<path d="M15.9999 24.8887H14.2222V26.6664H15.9999V24.8887Z" fill="black"/>
<path d="M28.4444 24.8887H26.6666V26.6664H28.4444V24.8887Z" fill="black"/>
<path d="M30.2222 24.8887H28.4445V26.6664H30.2222V24.8887Z" fill="black"/>
<path d="M33.7778 24.8887H32V26.6664H33.7778V24.8887Z" fill="black"/>
<path d="M35.5555 24.8887H33.7777V26.6664H35.5555V24.8887Z" fill="black"/>
<path d="M37.3333 24.8887H35.5555V26.6664H37.3333V24.8887Z" fill="black"/>
<path d="M39.1112 24.8887H37.3334V26.6664H39.1112V24.8887Z" fill="black"/>
<path d="M40.8889 24.8887H39.1111V26.6664H40.8889V24.8887Z" fill="black"/>
<path d="M42.6667 24.8887H40.8889V26.6664H42.6667V24.8887Z" fill="black"/>
<path d="M44.4444 24.8887H42.6666V26.6664H44.4444V24.8887Z" fill="black"/>
<path d="M47.9999 24.8887H46.2222V26.6664H47.9999V24.8887Z" fill="black"/>
<path d="M51.5555 24.8887H49.7777V26.6664H51.5555V24.8887Z" fill="black"/>
<path d="M55.1112 24.8887H53.3334V26.6664H55.1112V24.8887Z" fill="black"/>
<path d="M56.8889 24.8887H55.1111V26.6664H56.8889V24.8887Z" fill="black"/>
<path d="M58.6667 24.8887H56.8889V26.6664H58.6667V24.8887Z" fill="black"/>
<path d="M60.4444 24.8887H58.6666V26.6664H60.4444V24.8887Z" fill="black"/>
<path d="M62.2222 24.8887H60.4445V26.6664H62.2222V24.8887Z" fill="black"/>
<path d="M69.3333 24.8887H67.5555V26.6664H69.3333V24.8887Z" fill="black"/>
<path d="M71.1112 24.8887H69.3334V26.6664H71.1112V24.8887Z" fill="black"/>
<path d="M72.8889 24.8887H71.1111V26.6664H72.8889V24.8887Z" fill="black"/>
<path d="M74.6667 24.8887H72.8889V26.6664H74.6667V24.8887Z" fill="black"/>
<path d="M5.33332 26.667H3.55554V28.4448H5.33332V26.667Z" fill="black"/>
<path d="M7.11115 26.667H5.33337V28.4448H7.11115V26.667Z" fill="black"/>
<path d="M8.88886 26.667H7.11108V28.4448H8.88886V26.667Z" fill="black"/>
<path d="M10.6667 26.667H8.88892V28.4448H10.6667V26.667Z" fill="black"/>
<path d="M17.7778 26.667H16V28.4448H17.7778V26.667Z" fill="black"/>
<path d="M19.5555 26.667H17.7777V28.4448H19.5555V26.667Z" fill="black"/>
<path d="M23.1112 26.667H21.3334V28.4448H23.1112V26.667Z" fill="black"/>
<path d="M28.4444 26.667H26.6666V28.4448H28.4444V26.667Z" fill="black"/>
<path d="M30.2222 26.667H28.4445V28.4448H30.2222V26.667Z" fill="black"/>
<path d="M33.7778 26.667H32V28.4448H33.7778V26.667Z" fill="black"/>
<path d="M35.5555 26.667H33.7777V28.4448H35.5555V26.667Z" fill="black"/>
<path d="M40.8889 26.667H39.1111V28.4448H40.8889V26.667Z" fill="black"/>
<path d="M46.2222 26.667H44.4445V28.4448H46.2222V26.667Z" fill="black"/>
<path d="M47.9999 26.667H46.2222V28.4448H47.9999V26.667Z" fill="black"/>
<path d="M51.5555 26.667H49.7777V28.4448H51.5555V26.667Z" fill="black"/>
<path d="M53.3333 26.667H51.5555V28.4448H53.3333V26.667Z" fill="black"/>
<path d="M60.4444 26.667H58.6666V28.4448H60.4444V26.667Z" fill="black"/>
<path d="M62.2222 26.667H60.4445V28.4448H62.2222V26.667Z" fill="black"/>
<path d="M65.7778 26.667H64V28.4448H65.7778V26.667Z" fill="black"/>
<path d="M72.8889 26.667H71.1111V28.4448H72.8889V26.667Z" fill="black"/>
<path d="M76.4444 26.667H74.6666V28.4448H76.4444V26.667Z" fill="black"/>
<path d="M7.11115 28.4443H5.33337V30.2221H7.11115V28.4443Z" fill="black"/>
<path d="M8.88886 28.4443H7.11108V30.2221H8.88886V28.4443Z" fill="black"/>
<path d="M10.6667 28.4443H8.88892V30.2221H10.6667V28.4443Z" fill="black"/>
<path d="M12.4444 28.4443H10.6666V30.2221H12.4444V28.4443Z" fill="black"/>
<path d="M14.2222 28.4443H12.4445V30.2221H14.2222V28.4443Z" fill="black"/>
<path d="M15.9999 28.4443H14.2222V30.2221H15.9999V28.4443Z" fill="black"/>
<path d="M17.7778 28.4443H16V30.2221H17.7778V28.4443Z" fill="black"/>
<path d="M19.5555 28.4443H17.7777V30.2221H19.5555V28.4443Z" fill="black"/>
<path d="M21.3333 28.4443H19.5555V30.2221H21.3333V28.4443Z" fill="black"/>
<path d="M23.1112 28.4443H21.3334V30.2221H23.1112V28.4443Z" fill="black"/>
<path d="M24.8889 28.4443H23.1111V30.2221H24.8889V28.4443Z" fill="black"/>
<path d="M26.6667 28.4443H24.8889V30.2221H26.6667V28.4443Z" fill="black"/>
<path d="M31.9999 28.4443H30.2222V30.2221H31.9999V28.4443Z" fill="black"/>
<path d="M35.5555 28.4443H33.7777V30.2221H35.5555V28.4443Z" fill="black"/>
<path d="M39.1112 28.4443H37.3334V30.2221H39.1112V28.4443Z" fill="black"/>
<path d="M40.8889 28.4443H39.1111V30.2221H40.8889V28.4443Z" fill="black"/>
<path d="M46.2222 28.4443H44.4445V30.2221H46.2222V28.4443Z" fill="black"/>
<path d="M49.7778 28.4443H48V30.2221H49.7778V28.4443Z" fill="black"/>
<path d="M51.5555 28.4443H49.7777V30.2221H51.5555V28.4443Z" fill="black"/>
<path d="M55.1112 28.4443H53.3334V30.2221H55.1112V28.4443Z" fill="black"/>
<path d="M60.4444 28.4443H58.6666V30.2221H60.4444V28.4443Z" fill="black"/>
<path d="M62.2222 28.4443H60.4445V30.2221H62.2222V28.4443Z" fill="black"/>
<path d="M65.7778 28.4443H64V30.2221H65.7778V28.4443Z" fill="black"/>
<path d="M67.5555 28.4443H65.7777V30.2221H67.5555V28.4443Z" fill="black"/>
<path d="M71.1112 28.4443H69.3334V30.2221H71.1112V28.4443Z" fill="black"/>
<path d="M76.4444 28.4443H74.6666V30.2221H76.4444V28.4443Z" fill="black"/>
<path d="M7.11115 30.2227H5.33337V32.0004H7.11115V30.2227Z" fill="black"/>
<path d="M8.88886 30.2227H7.11108V32.0004H8.88886V30.2227Z" fill="black"/>
<path d="M14.2222 30.2227H12.4445V32.0004H14.2222V30.2227Z" fill="black"/>
<path d="M26.6667 30.2227H24.8889V32.0004H26.6667V30.2227Z" fill="black"/>
<path d="M28.4444 30.2227H26.6666V32.0004H28.4444V30.2227Z" fill="black"/>
<path d="M30.2222 30.2227H28.4445V32.0004H30.2222V30.2227Z" fill="black"/>
<path d="M31.9999 30.2227H30.2222V32.0004H31.9999V30.2227Z" fill="black"/>
<path d="M33.7778 30.2227H32V32.0004H33.7778V30.2227Z" fill="black"/>
<path d="M42.6667 30.2227H40.8889V32.0004H42.6667V30.2227Z" fill="black"/>
<path d="M44.4444 30.2227H42.6666V32.0004H44.4444V30.2227Z" fill="black"/>
<path d="M46.2222 30.2227H44.4445V32.0004H46.2222V30.2227Z" fill="black"/>
<path d="M51.5555 30.2227H49.7777V32.0004H51.5555V30.2227Z" fill="black"/>
<path d="M58.6667 30.2227H56.8889V32.0004H58.6667V30.2227Z" fill="black"/>
<path d="M65.7778 30.2227H64V32.0004H65.7778V30.2227Z" fill="black"/>
<path d="M67.5555 30.2227H65.7777V32.0004H67.5555V30.2227Z" fill="black"/>
<path d="M69.3333 30.2227H67.5555V32.0004H69.3333V30.2227Z" fill="black"/>
<path d="M71.1112 30.2227H69.3334V32.0004H71.1112V30.2227Z" fill="black"/>
<path d="M5.33332 32H3.55554V33.7778H5.33332V32Z" fill="black"/>
<path d="M8.88886 32H7.11108V33.7778H8.88886V32Z" fill="black"/>
<path d="M14.2222 32H12.4445V33.7778H14.2222V32Z" fill="black"/>
<path d="M15.9999 32H14.2222V33.7778H15.9999V32Z" fill="black"/>
<path d="M19.5555 32H17.7777V33.7778H19.5555V32Z" fill="black"/>
<path d="M21.3333 32H19.5555V33.7778H21.3333V32Z" fill="black"/>
<path d="M23.1112 32H21.3334V33.7778H23.1112V32Z" fill="black"/>
<path d="M26.6667 32H24.8889V33.7778H26.6667V32Z" fill="black"/>
<path d="M40.8889 32H39.1111V33.7778H40.8889V32Z" fill="black"/>
<path d="M44.4444 32H42.6666V33.7778H44.4444V32Z" fill="black"/>
<path d="M47.9999 32H46.2222V33.7778H47.9999V32Z" fill="black"/>
<path d="M62.2222 32H60.4445V33.7778H62.2222V32Z" fill="black"/>
<path d="M69.3333 32H67.5555V33.7778H69.3333V32Z" fill="black"/>
<path d="M71.1112 32H69.3334V33.7778H71.1112V32Z" fill="black"/>
<path d="M74.6667 32H72.8889V33.7778H74.6667V32Z" fill="black"/>
<path d="M5.33332 33.7783H3.55554V35.5561H5.33332V33.7783Z" fill="black"/>
<path d="M7.11115 33.7783H5.33337V35.5561H7.11115V33.7783Z" fill="black"/>
<path d="M8.88886 33.7783H7.11108V35.5561H8.88886V33.7783Z" fill="black"/>
<path d="M10.6667 33.7783H8.88892V35.5561H10.6667V33.7783Z" fill="black"/>
<path d="M17.7778 33.7783H16V35.5561H17.7778V33.7783Z" fill="black"/>
<path d="M19.5555 33.7783H17.7777V35.5561H19.5555V33.7783Z" fill="black"/>
<path d="M24.8889 33.7783H23.1111V35.5561H24.8889V33.7783Z" fill="black"/>
<path d="M26.6667 33.7783H24.8889V35.5561H26.6667V33.7783Z" fill="black"/>
<path d="M31.9999 33.7783H30.2222V35.5561H31.9999V33.7783Z" fill="black"/>
<path d="M39.1112 33.7783H37.3334V35.5561H39.1112V33.7783Z" fill="black"/>
<path d="M40.8889 33.7783H39.1111V35.5561H40.8889V33.7783Z" fill="black"/>
<path d="M42.6667 33.7783H40.8889V35.5561H42.6667V33.7783Z" fill="black"/>
<path d="M44.4444 33.7783H42.6666V35.5561H44.4444V33.7783Z" fill="black"/>
<path d="M46.2222 33.7783H44.4445V35.5561H46.2222V33.7783Z" fill="black"/>
<path d="M49.7778 33.7783H48V35.5561H49.7778V33.7783Z" fill="black"/>
<path d="M53.3333 33.7783H51.5555V35.5561H53.3333V33.7783Z" fill="black"/>
<path d="M55.1112 33.7783H53.3334V35.5561H55.1112V33.7783Z" fill="black"/>
<path d="M60.4444 33.7783H58.6666V35.5561H60.4444V33.7783Z" fill="black"/>
<path d="M62.2222 33.7783H60.4445V35.5561H62.2222V33.7783Z" fill="black"/>
<path d="M63.9999 33.7783H62.2222V35.5561H63.9999V33.7783Z" fill="black"/>
<path d="M67.5555 33.7783H65.7777V35.5561H67.5555V33.7783Z" fill="black"/>
<path d="M74.6667 33.7783H72.8889V35.5561H74.6667V33.7783Z" fill="black"/>
<path d="M5.33332 35.5557H3.55554V37.3334H5.33332V35.5557Z" fill="black"/>
<path d="M8.88886 35.5557H7.11108V37.3334H8.88886V35.5557Z" fill="black"/>
<path d="M10.6667 35.5557H8.88892V37.3334H10.6667V35.5557Z" fill="black"/>
<path d="M14.2222 35.5557H12.4445V37.3334H14.2222V35.5557Z" fill="black"/>
<path d="M15.9999 35.5557H14.2222V37.3334H15.9999V35.5557Z" fill="black"/>
<path d="M23.1112 35.5557H21.3334V37.3334H23.1112V35.5557Z" fill="black"/>
<path d="M24.8889 35.5557H23.1111V37.3334H24.8889V35.5557Z" fill="black"/>
<path d="M28.4444 35.5557H26.6666V37.3334H28.4444V35.5557Z" fill="black"/>
<path d="M31.9999 35.5557H30.2222V37.3334H31.9999V35.5557Z" fill="black"/>
<path d="M33.7778 35.5557H32V37.3334H33.7778V35.5557Z" fill="black"/>
<path d="M37.3333 35.5557H35.5555V37.3334H37.3333V35.5557Z" fill="black"/>
<path d="M40.8889 35.5557H39.1111V37.3334H40.8889V35.5557Z" fill="black"/>
<path d="M44.4444 35.5557H42.6666V37.3334H44.4444V35.5557Z" fill="black"/>
<path d="M49.7778 35.5557H48V37.3334H49.7778V35.5557Z" fill="black"/>
<path d="M53.3333 35.5557H51.5555V37.3334H53.3333V35.5557Z" fill="black"/>
<path d="M62.2222 35.5557H60.4445V37.3334H62.2222V35.5557Z" fill="black"/>
<path d="M69.3333 35.5557H67.5555V37.3334H69.3333V35.5557Z" fill="black"/>
<path d="M71.1112 35.5557H69.3334V37.3334H71.1112V35.5557Z" fill="black"/>
<path d="M8.88886 37.333H7.11108V39.1108H8.88886V37.333Z" fill="black"/>
<path d="M10.6667 37.333H8.88892V39.1108H10.6667V37.333Z" fill="black"/>
<path d="M12.4444 37.333H10.6666V39.1108H12.4444V37.333Z" fill="black"/>
<path d="M14.2222 37.333H12.4445V39.1108H14.2222V37.333Z" fill="black"/>
<path d="M17.7778 37.333H16V39.1108H17.7778V37.333Z" fill="black"/>
<path d="M24.8889 37.333H23.1111V39.1108H24.8889V37.333Z" fill="black"/>
<path d="M26.6667 37.333H24.8889V39.1108H26.6667V37.333Z" fill="black"/>
<path d="M28.4444 37.333H26.6666V39.1108H28.4444V37.333Z" fill="black"/>
<path d="M30.2222 37.333H28.4445V39.1108H30.2222V37.333Z" fill="black"/>
<path d="M33.7778 37.333H32V39.1108H33.7778V37.333Z" fill="black"/>
<path d="M35.5555 37.333H33.7777V39.1108H35.5555V37.333Z" fill="black"/>
<path d="M37.3333 37.333H35.5555V39.1108H37.3333V37.333Z" fill="black"/>
<path d="M42.6667 37.333H40.8889V39.1108H42.6667V37.333Z" fill="black"/>
<path d="M46.2222 37.333H44.4445V39.1108H46.2222V37.333Z" fill="black"/>
<path d="M56.8889 37.333H55.1111V39.1108H56.8889V37.333Z" fill="black"/>
<path d="M63.9999 37.333H62.2222V39.1108H63.9999V37.333Z" fill="black"/>
<path d="M67.5555 37.333H65.7777V39.1108H67.5555V37.333Z" fill="black"/>
<path d="M72.8889 37.333H71.1111V39.1108H72.8889V37.333Z" fill="black"/>
<path d="M74.6667 37.333H72.8889V39.1108H74.6667V37.333Z" fill="black"/>
<path d="M7.11115 39.1113H5.33337V40.8891H7.11115V39.1113Z" fill="black"/>
<path d="M10.6667 39.1113H8.88892V40.8891H10.6667V39.1113Z" fill="black"/>
<path d="M15.9999 39.1113H14.2222V40.8891H15.9999V39.1113Z" fill="black"/>
<path d="M17.7778 39.1113H16V40.8891H17.7778V39.1113Z" fill="black"/>
<path d="M19.5555 39.1113H17.7777V40.8891H19.5555V39.1113Z" fill="black"/>
<path d="M26.6667 39.1113H24.8889V40.8891H26.6667V39.1113Z" fill="black"/>
<path d="M30.2222 39.1113H28.4445V40.8891H30.2222V39.1113Z" fill="black"/>
<path d="M33.7778 39.1113H32V40.8891H33.7778V39.1113Z" fill="black"/>
<path d="M39.1112 39.1113H37.3334V40.8891H39.1112V39.1113Z" fill="black"/>
<path d="M55.1112 39.1113H53.3334V40.8891H55.1112V39.1113Z" fill="black"/>
<path d="M56.8889 39.1113H55.1111V40.8891H56.8889V39.1113Z" fill="black"/>
<path d="M60.4444 39.1113H58.6666V40.8891H60.4444V39.1113Z" fill="black"/>
<path d="M62.2222 39.1113H60.4445V40.8891H62.2222V39.1113Z" fill="black"/>
<path d="M63.9999 39.1113H62.2222V40.8891H63.9999V39.1113Z" fill="black"/>
<path d="M65.7778 39.1113H64V40.8891H65.7778V39.1113Z" fill="black"/>
<path d="M69.3333 39.1113H67.5555V40.8891H69.3333V39.1113Z" fill="black"/>
<path d="M72.8889 39.1113H71.1111V40.8891H72.8889V39.1113Z" fill="black"/>
<path d="M76.4444 39.1113H74.6666V40.8891H76.4444V39.1113Z" fill="black"/>
<path d="M14.2222 40.8887H12.4445V42.6664H14.2222V40.8887Z" fill="black"/>
<path d="M17.7778 40.8887H16V42.6664H17.7778V40.8887Z" fill="black"/>
<path d="M21.3333 40.8887H19.5555V42.6664H21.3333V40.8887Z" fill="black"/>
<path d="M24.8889 40.8887H23.1111V42.6664H24.8889V40.8887Z" fill="black"/>
<path d="M28.4444 40.8887H26.6666V42.6664H28.4444V40.8887Z" fill="black"/>
<path d="M40.8889 40.8887H39.1111V42.6664H40.8889V40.8887Z" fill="black"/>
<path d="M42.6667 40.8887H40.8889V42.6664H42.6667V40.8887Z" fill="black"/>
<path d="M51.5555 40.8887H49.7777V42.6664H51.5555V40.8887Z" fill="black"/>
<path d="M60.4444 40.8887H58.6666V42.6664H60.4444V40.8887Z" fill="black"/>
<path d="M63.9999 40.8887H62.2222V42.6664H63.9999V40.8887Z" fill="black"/>
<path d="M69.3333 40.8887H67.5555V42.6664H69.3333V40.8887Z" fill="black"/>
<path d="M71.1112 40.8887H69.3334V42.6664H71.1112V40.8887Z" fill="black"/>
<path d="M74.6667 40.8887H72.8889V42.6664H74.6667V40.8887Z" fill="black"/>
<path d="M76.4444 40.8887H74.6666V42.6664H76.4444V40.8887Z" fill="black"/>
<path d="M7.11115 42.667H5.33337V44.4448H7.11115V42.667Z" fill="black"/>
<path d="M10.6667 42.667H8.88892V44.4448H10.6667V42.667Z" fill="black"/>
<path d="M12.4444 42.667H10.6666V44.4448H12.4444V42.667Z" fill="black"/>
<path d="M15.9999 42.667H14.2222V44.4448H15.9999V42.667Z" fill="black"/>
<path d="M19.5555 42.667H17.7777V44.4448H19.5555V42.667Z" fill="black"/>
<path d="M21.3333 42.667H19.5555V44.4448H21.3333V42.667Z" fill="black"/>
<path d="M26.6667 42.667H24.8889V44.4448H26.6667V42.667Z" fill="black"/>
<path d="M42.6667 42.667H40.8889V44.4448H42.6667V42.667Z" fill="black"/>
<path d="M46.2222 42.667H44.4445V44.4448H46.2222V42.667Z" fill="black"/>
<path d="M51.5555 42.667H49.7777V44.4448H51.5555V42.667Z" fill="black"/>
<path d="M55.1112 42.667H53.3334V44.4448H55.1112V42.667Z" fill="black"/>
<path d="M56.8889 42.667H55.1111V44.4448H56.8889V42.667Z" fill="black"/>
<path d="M63.9999 42.667H62.2222V44.4448H63.9999V42.667Z" fill="black"/>
<path d="M69.3333 42.667H67.5555V44.4448H69.3333V42.667Z" fill="black"/>
<path d="M71.1112 42.667H69.3334V44.4448H71.1112V42.667Z" fill="black"/>
<path d="M72.8889 42.667H71.1111V44.4448H72.8889V42.667Z" fill="black"/>
<path d="M74.6667 42.667H72.8889V44.4448H74.6667V42.667Z" fill="black"/>
<path d="M5.33332 44.4443H3.55554V46.2221H5.33332V44.4443Z" fill="black"/>
<path d="M7.11115 44.4443H5.33337V46.2221H7.11115V44.4443Z" fill="black"/>
<path d="M8.88886 44.4443H7.11108V46.2221H8.88886V44.4443Z" fill="black"/>
<path d="M10.6667 44.4443H8.88892V46.2221H10.6667V44.4443Z" fill="black"/>
<path d="M12.4444 44.4443H10.6666V46.2221H12.4444V44.4443Z" fill="black"/>
<path d="M17.7778 44.4443H16V46.2221H17.7778V44.4443Z" fill="black"/>
<path d="M19.5555 44.4443H17.7777V46.2221H19.5555V44.4443Z" fill="black"/>
<path d="M28.4444 44.4443H26.6666V46.2221H28.4444V44.4443Z" fill="black"/>
<path d="M30.2222 44.4443H28.4445V46.2221H30.2222V44.4443Z" fill="black"/>
<path d="M39.1112 44.4443H37.3334V46.2221H39.1112V44.4443Z" fill="black"/>
<path d="M40.8889 44.4443H39.1111V46.2221H40.8889V44.4443Z" fill="black"/>
<path d="M46.2222 44.4443H44.4445V46.2221H46.2222V44.4443Z" fill="black"/>
<path d="M49.7778 44.4443H48V46.2221H49.7778V44.4443Z" fill="black"/>
<path d="M60.4444 44.4443H58.6666V46.2221H60.4444V44.4443Z" fill="black"/>
<path d="M62.2222 44.4443H60.4445V46.2221H62.2222V44.4443Z" fill="black"/>
<path d="M63.9999 44.4443H62.2222V46.2221H63.9999V44.4443Z" fill="black"/>
<path d="M65.7778 44.4443H64V46.2221H65.7778V44.4443Z" fill="black"/>
<path d="M71.1112 44.4443H69.3334V46.2221H71.1112V44.4443Z" fill="black"/>
<path d="M74.6667 44.4443H72.8889V46.2221H74.6667V44.4443Z" fill="black"/>
<path d="M76.4444 44.4443H74.6666V46.2221H76.4444V44.4443Z" fill="black"/>
<path d="M5.33332 46.2227H3.55554V48.0004H5.33332V46.2227Z" fill="black"/>
<path d="M8.88886 46.2227H7.11108V48.0004H8.88886V46.2227Z" fill="black"/>
<path d="M12.4444 46.2227H10.6666V48.0004H12.4444V46.2227Z" fill="black"/>
<path d="M14.2222 46.2227H12.4445V48.0004H14.2222V46.2227Z" fill="black"/>
<path d="M15.9999 46.2227H14.2222V48.0004H15.9999V46.2227Z" fill="black"/>
<path d="M17.7778 46.2227H16V48.0004H17.7778V46.2227Z" fill="black"/>
<path d="M19.5555 46.2227H17.7777V48.0004H19.5555V46.2227Z" fill="black"/>
<path d="M21.3333 46.2227H19.5555V48.0004H21.3333V46.2227Z" fill="black"/>
<path d="M28.4444 46.2227H26.6666V48.0004H28.4444V46.2227Z" fill="black"/>
<path d="M31.9999 46.2227H30.2222V48.0004H31.9999V46.2227Z" fill="black"/>
<path d="M35.5555 46.2227H33.7777V48.0004H35.5555V46.2227Z" fill="black"/>
<path d="M37.3333 46.2227H35.5555V48.0004H37.3333V46.2227Z" fill="black"/>
<path d="M44.4444 46.2227H42.6666V48.0004H44.4444V46.2227Z" fill="black"/>
<path d="M47.9999 46.2227H46.2222V48.0004H47.9999V46.2227Z" fill="black"/>
<path d="M49.7778 46.2227H48V48.0004H49.7778V46.2227Z" fill="black"/>
<path d="M51.5555 46.2227H49.7777V48.0004H51.5555V46.2227Z" fill="black"/>
<path d="M53.3333 46.2227H51.5555V48.0004H53.3333V46.2227Z" fill="black"/>
<path d="M56.8889 46.2227H55.1111V48.0004H56.8889V46.2227Z" fill="black"/>
<path d="M71.1112 46.2227H69.3334V48.0004H71.1112V46.2227Z" fill="black"/>
<path d="M72.8889 46.2227H71.1111V48.0004H72.8889V46.2227Z" fill="black"/>
<path d="M74.6667 46.2227H72.8889V48.0004H74.6667V46.2227Z" fill="black"/>
<path d="M7.11115 48H5.33337V49.7778H7.11115V48Z" fill="black"/>
<path d="M8.88886 48H7.11108V49.7778H8.88886V48Z" fill="black"/>
<path d="M10.6667 48H8.88892V49.7778H10.6667V48Z" fill="black"/>
<path d="M19.5555 48H17.7777V49.7778H19.5555V48Z" fill="black"/>
<path d="M21.3333 48H19.5555V49.7778H21.3333V48Z" fill="black"/>
<path d="M26.6667 48H24.8889V49.7778H26.6667V48Z" fill="black"/>
<path d="M28.4444 48H26.6666V49.7778H28.4444V48Z" fill="black"/>
<path d="M31.9999 48H30.2222V49.7778H31.9999V48Z" fill="black"/>
<path d="M33.7778 48H32V49.7778H33.7778V48Z" fill="black"/>
<path d="M35.5555 48H33.7777V49.7778H35.5555V48Z" fill="black"/>
<path d="M39.1112 48H37.3334V49.7778H39.1112V48Z" fill="black"/>
<path d="M40.8889 48H39.1111V49.7778H40.8889V48Z" fill="black"/>
<path d="M47.9999 48H46.2222V49.7778H47.9999V48Z" fill="black"/>
<path d="M53.3333 48H51.5555V49.7778H53.3333V48Z" fill="black"/>
<path d="M56.8889 48H55.1111V49.7778H56.8889V48Z" fill="black"/>
<path d="M58.6667 48H56.8889V49.7778H58.6667V48Z" fill="black"/>
<path d="M60.4444 48H58.6666V49.7778H60.4444V48Z" fill="black"/>
<path d="M62.2222 48H60.4445V49.7778H62.2222V48Z" fill="black"/>
<path d="M67.5555 48H65.7777V49.7778H67.5555V48Z" fill="black"/>
<path d="M71.1112 48H69.3334V49.7778H71.1112V48Z" fill="black"/>
<path d="M72.8889 48H71.1111V49.7778H72.8889V48Z" fill="black"/>
<path d="M14.2222 49.7783H12.4445V51.5561H14.2222V49.7783Z" fill="black"/>
<path d="M15.9999 49.7783H14.2222V51.5561H15.9999V49.7783Z" fill="black"/>
<path d="M21.3333 49.7783H19.5555V51.5561H21.3333V49.7783Z" fill="black"/>
<path d="M23.1112 49.7783H21.3334V51.5561H23.1112V49.7783Z" fill="black"/>
<path d="M24.8889 49.7783H23.1111V51.5561H24.8889V49.7783Z" fill="black"/>
<path d="M26.6667 49.7783H24.8889V51.5561H26.6667V49.7783Z" fill="black"/>
<path d="M30.2222 49.7783H28.4445V51.5561H30.2222V49.7783Z" fill="black"/>
<path d="M31.9999 49.7783H30.2222V51.5561H31.9999V49.7783Z" fill="black"/>
<path d="M37.3333 49.7783H35.5555V51.5561H37.3333V49.7783Z" fill="black"/>
<path d="M39.1112 49.7783H37.3334V51.5561H39.1112V49.7783Z" fill="black"/>
<path d="M40.8889 49.7783H39.1111V51.5561H40.8889V49.7783Z" fill="black"/>
<path d="M44.4444 49.7783H42.6666V51.5561H44.4444V49.7783Z" fill="black"/>
<path d="M58.6667 49.7783H56.8889V51.5561H58.6667V49.7783Z" fill="black"/>
<path d="M60.4444 49.7783H58.6666V51.5561H60.4444V49.7783Z" fill="black"/>
<path d="M62.2222 49.7783H60.4445V51.5561H62.2222V49.7783Z" fill="black"/>
<path d="M67.5555 49.7783H65.7777V51.5561H67.5555V49.7783Z" fill="black"/>
<path d="M71.1112 49.7783H69.3334V51.5561H71.1112V49.7783Z" fill="black"/>
<path d="M74.6667 49.7783H72.8889V51.5561H74.6667V49.7783Z" fill="black"/>
<path d="M76.4444 49.7783H74.6666V51.5561H76.4444V49.7783Z" fill="black"/>
<path d="M5.33332 51.5557H3.55554V53.3334H5.33332V51.5557Z" fill="black"/>
<path d="M10.6667 51.5557H8.88892V53.3334H10.6667V51.5557Z" fill="black"/>
<path d="M23.1112 51.5557H21.3334V53.3334H23.1112V51.5557Z" fill="black"/>
<path d="M24.8889 51.5557H23.1111V53.3334H24.8889V51.5557Z" fill="black"/>
<path d="M28.4444 51.5557H26.6666V53.3334H28.4444V51.5557Z" fill="black"/>
<path d="M30.2222 51.5557H28.4445V53.3334H30.2222V51.5557Z" fill="black"/>
<path d="M40.8889 51.5557H39.1111V53.3334H40.8889V51.5557Z" fill="black"/>
<path d="M42.6667 51.5557H40.8889V53.3334H42.6667V51.5557Z" fill="black"/>
<path d="M44.4444 51.5557H42.6666V53.3334H44.4444V51.5557Z" fill="black"/>
<path d="M51.5555 51.5557H49.7777V53.3334H51.5555V51.5557Z" fill="black"/>
<path d="M60.4444 51.5557H58.6666V53.3334H60.4444V51.5557Z" fill="black"/>
<path d="M62.2222 51.5557H60.4445V53.3334H62.2222V51.5557Z" fill="black"/>
<path d="M71.1112 51.5557H69.3334V53.3334H71.1112V51.5557Z" fill="black"/>
<path d="M74.6667 51.5557H72.8889V53.3334H74.6667V51.5557Z" fill="black"/>
<path d="M5.33332 53.333H3.55554V55.1108H5.33332V53.333Z" fill="black"/>
<path d="M7.11115 53.333H5.33337V55.1108H7.11115V53.333Z" fill="black"/>
<path d="M8.88886 53.333H7.11108V55.1108H8.88886V53.333Z" fill="black"/>
<path d="M14.2222 53.333H12.4445V55.1108H14.2222V53.333Z" fill="black"/>
<path d="M15.9999 53.333H14.2222V55.1108H15.9999V53.333Z" fill="black"/>
<path d="M21.3333 53.333H19.5555V55.1108H21.3333V53.333Z" fill="black"/>
<path d="M24.8889 53.333H23.1111V55.1108H24.8889V53.333Z" fill="black"/>
<path d="M26.6667 53.333H24.8889V55.1108H26.6667V53.333Z" fill="black"/>
<path d="M30.2222 53.333H28.4445V55.1108H30.2222V53.333Z" fill="black"/>
<path d="M31.9999 53.333H30.2222V55.1108H31.9999V53.333Z" fill="black"/>
<path d="M33.7778 53.333H32V55.1108H33.7778V53.333Z" fill="black"/>
<path d="M39.1112 53.333H37.3334V55.1108H39.1112V53.333Z" fill="black"/>
<path d="M40.8889 53.333H39.1111V55.1108H40.8889V53.333Z" fill="black"/>
<path d="M42.6667 53.333H40.8889V55.1108H42.6667V53.333Z" fill="black"/>
<path d="M49.7778 53.333H48V55.1108H49.7778V53.333Z" fill="black"/>
<path d="M51.5555 53.333H49.7777V55.1108H51.5555V53.333Z" fill="black"/>
<path d="M55.1112 53.333H53.3334V55.1108H55.1112V53.333Z" fill="black"/>
<path d="M56.8889 53.333H55.1111V55.1108H56.8889V53.333Z" fill="black"/>
<path d="M58.6667 53.333H56.8889V55.1108H58.6667V53.333Z" fill="black"/>
<path d="M60.4444 53.333H58.6666V55.1108H60.4444V53.333Z" fill="black"/>
<path d="M63.9999 53.333H62.2222V55.1108H63.9999V53.333Z" fill="black"/>
<path d="M67.5555 53.333H65.7777V55.1108H67.5555V53.333Z" fill="black"/>
<path d="M69.3333 53.333H67.5555V55.1108H69.3333V53.333Z" fill="black"/>
<path d="M71.1112 53.333H69.3334V55.1108H71.1112V53.333Z" fill="black"/>
<path d="M76.4444 53.333H74.6666V55.1108H76.4444V53.333Z" fill="black"/>
<path d="M8.88886 55.1113H7.11108V56.8891H8.88886V55.1113Z" fill="black"/>
<path d="M10.6667 55.1113H8.88892V56.8891H10.6667V55.1113Z" fill="black"/>
<path d="M12.4444 55.1113H10.6666V56.8891H12.4444V55.1113Z" fill="black"/>
<path d="M14.2222 55.1113H12.4445V56.8891H14.2222V55.1113Z" fill="black"/>
<path d="M19.5555 55.1113H17.7777V56.8891H19.5555V55.1113Z" fill="black"/>
<path d="M21.3333 55.1113H19.5555V56.8891H21.3333V55.1113Z" fill="black"/>
<path d="M23.1112 55.1113H21.3334V56.8891H23.1112V55.1113Z" fill="black"/>
<path d="M28.4444 55.1113H26.6666V56.8891H28.4444V55.1113Z" fill="black"/>
<path d="M37.3333 55.1113H35.5555V56.8891H37.3333V55.1113Z" fill="black"/>
<path d="M39.1112 55.1113H37.3334V56.8891H39.1112V55.1113Z" fill="black"/>
<path d="M40.8889 55.1113H39.1111V56.8891H40.8889V55.1113Z" fill="black"/>
<path d="M49.7778 55.1113H48V56.8891H49.7778V55.1113Z" fill="black"/>
<path d="M53.3333 55.1113H51.5555V56.8891H53.3333V55.1113Z" fill="black"/>
<path d="M55.1112 55.1113H53.3334V56.8891H55.1112V55.1113Z" fill="black"/>
<path d="M71.1112 55.1113H69.3334V56.8891H71.1112V55.1113Z" fill="black"/>
<path d="M76.4444 55.1113H74.6666V56.8891H76.4444V55.1113Z" fill="black"/>
<path d="M5.33332 56.8887H3.55554V58.6664H5.33332V56.8887Z" fill="black"/>
<path d="M10.6667 56.8887H8.88892V58.6664H10.6667V56.8887Z" fill="black"/>
<path d="M15.9999 56.8887H14.2222V58.6664H15.9999V56.8887Z" fill="black"/>
<path d="M19.5555 56.8887H17.7777V58.6664H19.5555V56.8887Z" fill="black"/>
<path d="M21.3333 56.8887H19.5555V58.6664H21.3333V56.8887Z" fill="black"/>
<path d="M24.8889 56.8887H23.1111V58.6664H24.8889V56.8887Z" fill="black"/>
<path d="M30.2222 56.8887H28.4445V58.6664H30.2222V56.8887Z" fill="black"/>
<path d="M31.9999 56.8887H30.2222V58.6664H31.9999V56.8887Z" fill="black"/>
<path d="M33.7778 56.8887H32V58.6664H33.7778V56.8887Z" fill="black"/>
<path d="M39.1112 56.8887H37.3334V58.6664H39.1112V56.8887Z" fill="black"/>
<path d="M42.6667 56.8887H40.8889V58.6664H42.6667V56.8887Z" fill="black"/>
<path d="M49.7778 56.8887H48V58.6664H49.7778V56.8887Z" fill="black"/>
<path d="M53.3333 56.8887H51.5555V58.6664H53.3333V56.8887Z" fill="black"/>
<path d="M63.9999 56.8887H62.2222V58.6664H63.9999V56.8887Z" fill="black"/>
<path d="M65.7778 56.8887H64V58.6664H65.7778V56.8887Z" fill="black"/>
<path d="M67.5555 56.8887H65.7777V58.6664H67.5555V56.8887Z" fill="black"/>
<path d="M14.2222 58.667H12.4445V60.4448H14.2222V58.667Z" fill="black"/>
<path d="M17.7778 58.667H16V60.4448H17.7778V58.667Z" fill="black"/>
<path d="M19.5555 58.667H17.7777V60.4448H19.5555V58.667Z" fill="black"/>
<path d="M21.3333 58.667H19.5555V60.4448H21.3333V58.667Z" fill="black"/>
<path d="M23.1112 58.667H21.3334V60.4448H23.1112V58.667Z" fill="black"/>
<path d="M26.6667 58.667H24.8889V60.4448H26.6667V58.667Z" fill="black"/>
<path d="M28.4444 58.667H26.6666V60.4448H28.4444V58.667Z" fill="black"/>
<path d="M30.2222 58.667H28.4445V60.4448H30.2222V58.667Z" fill="black"/>
<path d="M31.9999 58.667H30.2222V60.4448H31.9999V58.667Z" fill="black"/>
<path d="M35.5555 58.667H33.7777V60.4448H35.5555V58.667Z" fill="black"/>
<path d="M37.3333 58.667H35.5555V60.4448H37.3333V58.667Z" fill="black"/>
<path d="M39.1112 58.667H37.3334V60.4448H39.1112V58.667Z" fill="black"/>
<path d="M44.4444 58.667H42.6666V60.4448H44.4444V58.667Z" fill="black"/>
<path d="M47.9999 58.667H46.2222V60.4448H47.9999V58.667Z" fill="black"/>
<path d="M51.5555 58.667H49.7777V60.4448H51.5555V58.667Z" fill="black"/>
<path d="M53.3333 58.667H51.5555V60.4448H53.3333V58.667Z" fill="black"/>
<path d="M56.8889 58.667H55.1111V60.4448H56.8889V58.667Z" fill="black"/>
<path d="M58.6667 58.667H56.8889V60.4448H58.6667V58.667Z" fill="black"/>
<path d="M65.7778 58.667H64V60.4448H65.7778V58.667Z" fill="black"/>
<path d="M69.3333 58.667H67.5555V60.4448H69.3333V58.667Z" fill="black"/>
<path d="M72.8889 58.667H71.1111V60.4448H72.8889V58.667Z" fill="black"/>
<path d="M74.6667 58.667H72.8889V60.4448H74.6667V58.667Z" fill="black"/>
<path d="M7.11115 60.4443H5.33337V62.2221H7.11115V60.4443Z" fill="black"/>
<path d="M10.6667 60.4443H8.88892V62.2221H10.6667V60.4443Z" fill="black"/>
<path d="M14.2222 60.4443H12.4445V62.2221H14.2222V60.4443Z" fill="black"/>
<path d="M15.9999 60.4443H14.2222V62.2221H15.9999V60.4443Z" fill="black"/>
<path d="M17.7778 60.4443H16V62.2221H17.7778V60.4443Z" fill="black"/>
<path d="M21.3333 60.4443H19.5555V62.2221H21.3333V60.4443Z" fill="black"/>
<path d="M23.1112 60.4443H21.3334V62.2221H23.1112V60.4443Z" fill="black"/>
<path d="M26.6667 60.4443H24.8889V62.2221H26.6667V60.4443Z" fill="black"/>
<path d="M28.4444 60.4443H26.6666V62.2221H28.4444V60.4443Z" fill="black"/>
<path d="M33.7778 60.4443H32V62.2221H33.7778V60.4443Z" fill="black"/>
<path d="M35.5555 60.4443H33.7777V62.2221H35.5555V60.4443Z" fill="black"/>
<path d="M56.8889 60.4443H55.1111V62.2221H56.8889V60.4443Z" fill="black"/>
<path d="M60.4444 60.4443H58.6666V62.2221H60.4444V60.4443Z" fill="black"/>
<path d="M62.2222 60.4443H60.4445V62.2221H62.2222V60.4443Z" fill="black"/>
<path d="M63.9999 60.4443H62.2222V62.2221H63.9999V60.4443Z" fill="black"/>
<path d="M65.7778 60.4443H64V62.2221H65.7778V60.4443Z" fill="black"/>
<path d="M67.5555 60.4443H65.7777V62.2221H67.5555V60.4443Z" fill="black"/>
<path d="M69.3333 60.4443H67.5555V62.2221H69.3333V60.4443Z" fill="black"/>
<path d="M71.1112 60.4443H69.3334V62.2221H71.1112V60.4443Z" fill="black"/>
<path d="M72.8889 60.4443H71.1111V62.2221H72.8889V60.4443Z" fill="black"/>
<path d="M19.5555 62.2227H17.7777V64.0004H19.5555V62.2227Z" fill="black"/>
<path d="M21.3333 62.2227H19.5555V64.0004H21.3333V62.2227Z" fill="black"/>
<path d="M23.1112 62.2227H21.3334V64.0004H23.1112V62.2227Z" fill="black"/>
<path d="M30.2222 62.2227H28.4445V64.0004H30.2222V62.2227Z" fill="black"/>
<path d="M35.5555 62.2227H33.7777V64.0004H35.5555V62.2227Z" fill="black"/>
<path d="M39.1112 62.2227H37.3334V64.0004H39.1112V62.2227Z" fill="black"/>
<path d="M42.6667 62.2227H40.8889V64.0004H42.6667V62.2227Z" fill="black"/>
<path d="M62.2222 62.2227H60.4445V64.0004H62.2222V62.2227Z" fill="black"/>
<path d="M69.3333 62.2227H67.5555V64.0004H69.3333V62.2227Z" fill="black"/>
<path d="M72.8889 62.2227H71.1111V64.0004H72.8889V62.2227Z" fill="black"/>
<path d="M74.6667 62.2227H72.8889V64.0004H74.6667V62.2227Z" fill="black"/>
<path d="M76.4444 62.2227H74.6666V64.0004H76.4444V62.2227Z" fill="black"/>
<path d="M19.5555 64H17.7777V65.7778H19.5555V64Z" fill="black"/>
<path d="M23.1112 64H21.3334V65.7778H23.1112V64Z" fill="black"/>
<path d="M28.4444 64H26.6666V65.7778H28.4444V64Z" fill="black"/>
<path d="M30.2222 64H28.4445V65.7778H30.2222V64Z" fill="black"/>
<path d="M31.9999 64H30.2222V65.7778H31.9999V64Z" fill="black"/>
<path d="M33.7778 64H32V65.7778H33.7778V64Z" fill="black"/>
<path d="M37.3333 64H35.5555V65.7778H37.3333V64Z" fill="black"/>
<path d="M46.2222 64H44.4445V65.7778H46.2222V64Z" fill="black"/>
<path d="M47.9999 64H46.2222V65.7778H47.9999V64Z" fill="black"/>
<path d="M51.5555 64H49.7777V65.7778H51.5555V64Z" fill="black"/>
<path d="M56.8889 64H55.1111V65.7778H56.8889V64Z" fill="black"/>
<path d="M60.4444 64H58.6666V65.7778H60.4444V64Z" fill="black"/>
<path d="M62.2222 64H60.4445V65.7778H62.2222V64Z" fill="black"/>
<path d="M65.7778 64H64V65.7778H65.7778V64Z" fill="black"/>
<path d="M69.3333 64H67.5555V65.7778H69.3333V64Z" fill="black"/>
<path d="M72.8889 64H71.1111V65.7778H72.8889V64Z" fill="black"/>
<path d="M74.6667 64H72.8889V65.7778H74.6667V64Z" fill="black"/>
<path d="M19.5555 65.7783H17.7777V67.5561H19.5555V65.7783Z" fill="black"/>
<path d="M24.8889 65.7783H23.1111V67.5561H24.8889V65.7783Z" fill="black"/>
<path d="M28.4444 65.7783H26.6666V67.5561H28.4444V65.7783Z" fill="black"/>
<path d="M30.2222 65.7783H28.4445V67.5561H30.2222V65.7783Z" fill="black"/>
<path d="M31.9999 65.7783H30.2222V67.5561H31.9999V65.7783Z" fill="black"/>
<path d="M35.5555 65.7783H33.7777V67.5561H35.5555V65.7783Z" fill="black"/>
<path d="M47.9999 65.7783H46.2222V67.5561H47.9999V65.7783Z" fill="black"/>
<path d="M49.7778 65.7783H48V67.5561H49.7778V65.7783Z" fill="black"/>
<path d="M51.5555 65.7783H49.7777V67.5561H51.5555V65.7783Z" fill="black"/>
<path d="M55.1112 65.7783H53.3334V67.5561H55.1112V65.7783Z" fill="black"/>
<path d="M60.4444 65.7783H58.6666V67.5561H60.4444V65.7783Z" fill="black"/>
<path d="M62.2222 65.7783H60.4445V67.5561H62.2222V65.7783Z" fill="black"/>
<path d="M69.3333 65.7783H67.5555V67.5561H69.3333V65.7783Z" fill="black"/>
<path d="M71.1112 65.7783H69.3334V67.5561H71.1112V65.7783Z" fill="black"/>
<path d="M74.6667 65.7783H72.8889V67.5561H74.6667V65.7783Z" fill="black"/>
<path d="M24.8889 67.5557H23.1111V69.3334H24.8889V67.5557Z" fill="black"/>
<path d="M28.4444 67.5557H26.6666V69.3334H28.4444V67.5557Z" fill="black"/>
<path d="M31.9999 67.5557H30.2222V69.3334H31.9999V67.5557Z" fill="black"/>
<path d="M33.7778 67.5557H32V69.3334H33.7778V67.5557Z" fill="black"/>
<path d="M42.6667 67.5557H40.8889V69.3334H42.6667V67.5557Z" fill="black"/>
<path d="M47.9999 67.5557H46.2222V69.3334H47.9999V67.5557Z" fill="black"/>
<path d="M49.7778 67.5557H48V69.3334H49.7778V67.5557Z" fill="black"/>
<path d="M55.1112 67.5557H53.3334V69.3334H55.1112V67.5557Z" fill="black"/>
<path d="M56.8889 67.5557H55.1111V69.3334H56.8889V67.5557Z" fill="black"/>
<path d="M58.6667 67.5557H56.8889V69.3334H58.6667V67.5557Z" fill="black"/>
<path d="M62.2222 67.5557H60.4445V69.3334H62.2222V67.5557Z" fill="black"/>
<path d="M63.9999 67.5557H62.2222V69.3334H63.9999V67.5557Z" fill="black"/>
<path d="M65.7778 67.5557H64V69.3334H65.7778V67.5557Z" fill="black"/>
<path d="M67.5555 67.5557H65.7777V69.3334H67.5555V67.5557Z" fill="black"/>
<path d="M69.3333 67.5557H67.5555V69.3334H69.3333V67.5557Z" fill="black"/>
<path d="M71.1112 67.5557H69.3334V69.3334H71.1112V67.5557Z" fill="black"/>
<path d="M72.8889 67.5557H71.1111V69.3334H72.8889V67.5557Z" fill="black"/>
<path d="M76.4444 67.5557H74.6666V69.3334H76.4444V67.5557Z" fill="black"/>
<path d="M19.5555 69.333H17.7777V71.1108H19.5555V69.333Z" fill="black"/>
<path d="M21.3333 69.333H19.5555V71.1108H21.3333V69.333Z" fill="black"/>
<path d="M30.2222 69.333H28.4445V71.1108H30.2222V69.333Z" fill="black"/>
<path d="M39.1112 69.333H37.3334V71.1108H39.1112V69.333Z" fill="black"/>
<path d="M40.8889 69.333H39.1111V71.1108H40.8889V69.333Z" fill="black"/>
<path d="M42.6667 69.333H40.8889V71.1108H42.6667V69.333Z" fill="black"/>
<path d="M44.4444 69.333H42.6666V71.1108H44.4444V69.333Z" fill="black"/>
<path d="M46.2222 69.333H44.4445V71.1108H46.2222V69.333Z" fill="black"/>
<path d="M47.9999 69.333H46.2222V71.1108H47.9999V69.333Z" fill="black"/>
<path d="M53.3333 69.333H51.5555V71.1108H53.3333V69.333Z" fill="black"/>
<path d="M56.8889 69.333H55.1111V71.1108H56.8889V69.333Z" fill="black"/>
<path d="M58.6667 69.333H56.8889V71.1108H58.6667V69.333Z" fill="black"/>
<path d="M60.4444 69.333H58.6666V71.1108H60.4444V69.333Z" fill="black"/>
<path d="M62.2222 69.333H60.4445V71.1108H62.2222V69.333Z" fill="black"/>
<path d="M69.3333 69.333H67.5555V71.1108H69.3333V69.333Z" fill="black"/>
<path d="M76.4444 69.333H74.6666V71.1108H76.4444V69.333Z" fill="black"/>
<path d="M19.5555 71.1113H17.7777V72.8891H19.5555V71.1113Z" fill="black"/>
<path d="M21.3333 71.1113H19.5555V72.8891H21.3333V71.1113Z" fill="black"/>
<path d="M23.1112 71.1113H21.3334V72.8891H23.1112V71.1113Z" fill="black"/>
<path d="M24.8889 71.1113H23.1111V72.8891H24.8889V71.1113Z" fill="black"/>
<path d="M26.6667 71.1113H24.8889V72.8891H26.6667V71.1113Z" fill="black"/>
<path d="M31.9999 71.1113H30.2222V72.8891H31.9999V71.1113Z" fill="black"/>
<path d="M35.5555 71.1113H33.7777V72.8891H35.5555V71.1113Z" fill="black"/>
<path d="M37.3333 71.1113H35.5555V72.8891H37.3333V71.1113Z" fill="black"/>
<path d="M39.1112 71.1113H37.3334V72.8891H39.1112V71.1113Z" fill="black"/>
<path d="M42.6667 71.1113H40.8889V72.8891H42.6667V71.1113Z" fill="black"/>
<path d="M47.9999 71.1113H46.2222V72.8891H47.9999V71.1113Z" fill="black"/>
<path d="M49.7778 71.1113H48V72.8891H49.7778V71.1113Z" fill="black"/>
<path d="M55.1112 71.1113H53.3334V72.8891H55.1112V71.1113Z" fill="black"/>
<path d="M60.4444 71.1113H58.6666V72.8891H60.4444V71.1113Z" fill="black"/>
<path d="M67.5555 71.1113H65.7777V72.8891H67.5555V71.1113Z" fill="black"/>
<path d="M74.6667 71.1113H72.8889V72.8891H74.6667V71.1113Z" fill="black"/>
<path d="M76.4444 71.1113H74.6666V72.8891H76.4444V71.1113Z" fill="black"/>
<path d="M26.6667 72.8887H24.8889V74.6664H26.6667V72.8887Z" fill="black"/>
<path d="M28.4444 72.8887H26.6666V74.6664H28.4444V72.8887Z" fill="black"/>
<path d="M31.9999 72.8887H30.2222V74.6664H31.9999V72.8887Z" fill="black"/>
<path d="M37.3333 72.8887H35.5555V74.6664H37.3333V72.8887Z" fill="black"/>
<path d="M40.8889 72.8887H39.1111V74.6664H40.8889V72.8887Z" fill="black"/>
<path d="M42.6667 72.8887H40.8889V74.6664H42.6667V72.8887Z" fill="black"/>
<path d="M44.4444 72.8887H42.6666V74.6664H44.4444V72.8887Z" fill="black"/>
<path d="M58.6667 72.8887H56.8889V74.6664H58.6667V72.8887Z" fill="black"/>
<path d="M62.2222 72.8887H60.4445V74.6664H62.2222V72.8887Z" fill="black"/>
<path d="M63.9999 72.8887H62.2222V74.6664H63.9999V72.8887Z" fill="black"/>
<path d="M69.3333 72.8887H67.5555V74.6664H69.3333V72.8887Z" fill="black"/>
<path d="M71.1112 72.8887H69.3334V74.6664H71.1112V72.8887Z" fill="black"/>
<path d="M74.6667 72.8887H72.8889V74.6664H74.6667V72.8887Z" fill="black"/>
<path d="M19.5555 74.667H17.7777V76.4448H19.5555V74.667Z" fill="black"/>
<path d="M26.6667 74.667H24.8889V76.4448H26.6667V74.667Z" fill="black"/>
<path d="M28.4444 74.667H26.6666V76.4448H28.4444V74.667Z" fill="black"/>
<path d="M31.9999 74.667H30.2222V76.4448H31.9999V74.667Z" fill="black"/>
<path d="M33.7778 74.667H32V76.4448H33.7778V74.667Z" fill="black"/>
<path d="M35.5555 74.667H33.7777V76.4448H35.5555V74.667Z" fill="black"/>
<path d="M40.8889 74.667H39.1111V76.4448H40.8889V74.667Z" fill="black"/>
<path d="M42.6667 74.667H40.8889V76.4448H42.6667V74.667Z" fill="black"/>
<path d="M44.4444 74.667H42.6666V76.4448H44.4444V74.667Z" fill="black"/>
<path d="M46.2222 74.667H44.4445V76.4448H46.2222V74.667Z" fill="black"/>
<path d="M49.7778 74.667H48V76.4448H49.7778V74.667Z" fill="black"/>
<path d="M55.1112 74.667H53.3334V76.4448H55.1112V74.667Z" fill="black"/>
<path d="M58.6667 74.667H56.8889V76.4448H58.6667V74.667Z" fill="black"/>
<path d="M62.2222 74.667H60.4445V76.4448H62.2222V74.667Z" fill="black"/>
<path d="M63.9999 74.667H62.2222V76.4448H63.9999V74.667Z" fill="black"/>
<path d="M65.7778 74.667H64V76.4448H65.7778V74.667Z" fill="black"/>
<path d="M72.8889 74.667H71.1111V76.4448H72.8889V74.667Z" fill="black"/>
<path d="M74.6667 74.667H72.8889V76.4448H74.6667V74.667Z" fill="black"/>
<path d="M14.1333 3.55566H5.42221H3.55554V5.42233V14.1334V16.0001H5.42221H14.1333H16V14.1334V5.42233V3.55566H14.1333ZM14.1333 14.1334H5.42221V5.42233H14.1333V14.1334Z" fill="black"/>
<path d="M74.5778 3.55566H65.8667H64V5.42233V14.1334V16.0001H65.8667H74.5778H76.4444V14.1334V5.42233V3.55566H74.5778ZM74.5778 14.1334H65.8667V5.42233H74.5778V14.1334Z" fill="black"/>
<path d="M14.1333 64H5.42221H3.55554V65.8667V74.5778V76.4444H5.42221H14.1333H16V74.5778V65.8667V64H14.1333ZM14.1333 74.5778H5.42221V65.8667H14.1333V74.5778Z" fill="black"/>
<path d="M12.4444 7.11133H7.11108V12.4447H12.4444V7.11133Z" fill="black"/>
<path d="M72.8889 7.11133H67.5555V12.4447H72.8889V7.11133Z" fill="black"/>
<path d="M12.4444 67.5557H7.11108V72.889H12.4444V67.5557Z" fill="black"/>
</g>
<defs>
<clipPath id="clip0_135_2">
<rect width="80" height="80" fill="white"/>
</clipPath>
</defs>
</svg>
