<svg width="80" height="80" viewBox="0 0 80 80" fill="none" xmlns="http://www.w3.org/2000/svg">
<g clip-path="url(#clip0_135_2133)">
<path d="M80 0H0V80H80V0Z" fill="white"/>
<path d="M25.3659 3.90234H23.4147V5.85356H25.3659V3.90234Z" fill="black"/>
<path d="M27.3171 3.90234H25.3658V5.85356H27.3171V3.90234Z" fill="black"/>
<path d="M37.0732 3.90234H35.1219V5.85356H37.0732V3.90234Z" fill="black"/>
<path d="M40.9756 3.90234H39.0244V5.85356H40.9756V3.90234Z" fill="black"/>
<path d="M42.9268 3.90234H40.9756V5.85356H42.9268V3.90234Z" fill="black"/>
<path d="M44.8781 3.90234H42.9269V5.85356H44.8781V3.90234Z" fill="black"/>
<path d="M46.8293 3.90234H44.8781V5.85356H46.8293V3.90234Z" fill="black"/>
<path d="M50.7317 3.90234H48.7805V5.85356H50.7317V3.90234Z" fill="black"/>
<path d="M54.6342 3.90234H52.683V5.85356H54.6342V3.90234Z" fill="black"/>
<path d="M25.3659 5.85352H23.4147V7.80474H25.3659V5.85352Z" fill="black"/>
<path d="M27.3171 5.85352H25.3658V7.80474H27.3171V5.85352Z" fill="black"/>
<path d="M33.1707 5.85352H31.2195V7.80474H33.1707V5.85352Z" fill="black"/>
<path d="M35.122 5.85352H33.1708V7.80474H35.122V5.85352Z" fill="black"/>
<path d="M39.0245 5.85352H37.0732V7.80474H39.0245V5.85352Z" fill="black"/>
<path d="M40.9756 5.85352H39.0244V7.80474H40.9756V5.85352Z" fill="black"/>
<path d="M44.8781 5.85352H42.9269V7.80474H44.8781V5.85352Z" fill="black"/>
<path d="M52.6829 5.85352H50.7317V7.80474H52.6829V5.85352Z" fill="black"/>
<path d="M54.6342 5.85352H52.683V7.80474H54.6342V5.85352Z" fill="black"/>
<path d="M56.5854 5.85352H54.6342V7.80474H56.5854V5.85352Z" fill="black"/>
<path d="M58.5367 5.85352H56.5854V7.80474H58.5367V5.85352Z" fill="black"/>
<path d="M60.4878 5.85352H58.5366V7.80474H60.4878V5.85352Z" fill="black"/>
<path d="M21.4634 7.80469H19.5122V9.75591H21.4634V7.80469Z" fill="black"/>
<path d="M23.4147 7.80469H21.4635V9.75591H23.4147V7.80469Z" fill="black"/>
<path d="M25.3659 7.80469H23.4147V9.75591H25.3659V7.80469Z" fill="black"/>
<path d="M27.3171 7.80469H25.3658V9.75591H27.3171V7.80469Z" fill="black"/>
<path d="M44.8781 7.80469H42.9269V9.75591H44.8781V7.80469Z" fill="black"/>
<path d="M46.8293 7.80469H44.8781V9.75591H46.8293V7.80469Z" fill="black"/>
<path d="M48.7806 7.80469H46.8293V9.75591H48.7806V7.80469Z" fill="black"/>
<path d="M50.7317 7.80469H48.7805V9.75591H50.7317V7.80469Z" fill="black"/>
<path d="M56.5854 7.80469H54.6342V9.75591H56.5854V7.80469Z" fill="black"/>
<path d="M58.5367 7.80469H56.5854V9.75591H58.5367V7.80469Z" fill="black"/>
<path d="M21.4634 9.75586H19.5122V11.7071H21.4634V9.75586Z" fill="black"/>
<path d="M25.3659 9.75586H23.4147V11.7071H25.3659V9.75586Z" fill="black"/>
<path d="M29.2684 9.75586H27.3171V11.7071H29.2684V9.75586Z" fill="black"/>
<path d="M35.122 9.75586H33.1708V11.7071H35.122V9.75586Z" fill="black"/>
<path d="M39.0245 9.75586H37.0732V11.7071H39.0245V9.75586Z" fill="black"/>
<path d="M40.9756 9.75586H39.0244V11.7071H40.9756V9.75586Z" fill="black"/>
<path d="M42.9268 9.75586H40.9756V11.7071H42.9268V9.75586Z" fill="black"/>
<path d="M44.8781 9.75586H42.9269V11.7071H44.8781V9.75586Z" fill="black"/>
<path d="M48.7806 9.75586H46.8293V11.7071H48.7806V9.75586Z" fill="black"/>
<path d="M50.7317 9.75586H48.7805V11.7071H50.7317V9.75586Z" fill="black"/>
<path d="M54.6342 9.75586H52.683V11.7071H54.6342V9.75586Z" fill="black"/>
<path d="M56.5854 9.75586H54.6342V11.7071H56.5854V9.75586Z" fill="black"/>
<path d="M21.4634 11.707H19.5122V13.6583H21.4634V11.707Z" fill="black"/>
<path d="M29.2684 11.707H27.3171V13.6583H29.2684V11.707Z" fill="black"/>
<path d="M31.2195 11.707H29.2683V13.6583H31.2195V11.707Z" fill="black"/>
<path d="M33.1707 11.707H31.2195V13.6583H33.1707V11.707Z" fill="black"/>
<path d="M39.0245 11.707H37.0732V13.6583H39.0245V11.707Z" fill="black"/>
<path d="M40.9756 11.707H39.0244V13.6583H40.9756V11.707Z" fill="black"/>
<path d="M42.9268 11.707H40.9756V13.6583H42.9268V11.707Z" fill="black"/>
<path d="M44.8781 11.707H42.9269V13.6583H44.8781V11.707Z" fill="black"/>
<path d="M46.8293 11.707H44.8781V13.6583H46.8293V11.707Z" fill="black"/>
<path d="M48.7806 11.707H46.8293V13.6583H48.7806V11.707Z" fill="black"/>
<path d="M50.7317 11.707H48.7805V13.6583H50.7317V11.707Z" fill="black"/>
<path d="M54.6342 11.707H52.683V13.6583H54.6342V11.707Z" fill="black"/>
<path d="M60.4878 11.707H58.5366V13.6583H60.4878V11.707Z" fill="black"/>
<path d="M21.4634 13.6582H19.5122V15.6094H21.4634V13.6582Z" fill="black"/>
<path d="M27.3171 13.6582H25.3658V15.6094H27.3171V13.6582Z" fill="black"/>
<path d="M31.2195 13.6582H29.2683V15.6094H31.2195V13.6582Z" fill="black"/>
<path d="M33.1707 13.6582H31.2195V15.6094H33.1707V13.6582Z" fill="black"/>
<path d="M37.0732 13.6582H35.1219V15.6094H37.0732V13.6582Z" fill="black"/>
<path d="M39.0245 13.6582H37.0732V15.6094H39.0245V13.6582Z" fill="black"/>
<path d="M40.9756 13.6582H39.0244V15.6094H40.9756V13.6582Z" fill="black"/>
<path d="M48.7806 13.6582H46.8293V15.6094H48.7806V13.6582Z" fill="black"/>
<path d="M54.6342 13.6582H52.683V15.6094H54.6342V13.6582Z" fill="black"/>
<path d="M56.5854 13.6582H54.6342V15.6094H56.5854V13.6582Z" fill="black"/>
<path d="M58.5367 13.6582H56.5854V15.6094H58.5367V13.6582Z" fill="black"/>
<path d="M60.4878 13.6582H58.5366V15.6094H60.4878V13.6582Z" fill="black"/>
<path d="M21.4634 15.6094H19.5122V17.5606H21.4634V15.6094Z" fill="black"/>
<path d="M25.3659 15.6094H23.4147V17.5606H25.3659V15.6094Z" fill="black"/>
<path d="M29.2684 15.6094H27.3171V17.5606H29.2684V15.6094Z" fill="black"/>
<path d="M33.1707 15.6094H31.2195V17.5606H33.1707V15.6094Z" fill="black"/>
<path d="M37.0732 15.6094H35.1219V17.5606H37.0732V15.6094Z" fill="black"/>
<path d="M40.9756 15.6094H39.0244V17.5606H40.9756V15.6094Z" fill="black"/>
<path d="M44.8781 15.6094H42.9269V17.5606H44.8781V15.6094Z" fill="black"/>
<path d="M48.7806 15.6094H46.8293V17.5606H48.7806V15.6094Z" fill="black"/>
<path d="M52.6829 15.6094H50.7317V17.5606H52.6829V15.6094Z" fill="black"/>
<path d="M56.5854 15.6094H54.6342V17.5606H56.5854V15.6094Z" fill="black"/>
<path d="M60.4878 15.6094H58.5366V17.5606H60.4878V15.6094Z" fill="black"/>
<path d="M21.4634 17.5605H19.5122V19.5118H21.4634V17.5605Z" fill="black"/>
<path d="M23.4147 17.5605H21.4635V19.5118H23.4147V17.5605Z" fill="black"/>
<path d="M27.3171 17.5605H25.3658V19.5118H27.3171V17.5605Z" fill="black"/>
<path d="M29.2684 17.5605H27.3171V19.5118H29.2684V17.5605Z" fill="black"/>
<path d="M35.122 17.5605H33.1708V19.5118H35.122V17.5605Z" fill="black"/>
<path d="M46.8293 17.5605H44.8781V19.5118H46.8293V17.5605Z" fill="black"/>
<path d="M48.7806 17.5605H46.8293V19.5118H48.7806V17.5605Z" fill="black"/>
<path d="M50.7317 17.5605H48.7805V19.5118H50.7317V17.5605Z" fill="black"/>
<path d="M60.4878 17.5605H58.5366V19.5118H60.4878V17.5605Z" fill="black"/>
<path d="M5.85369 19.5117H3.90247V21.4629H5.85369V19.5117Z" fill="black"/>
<path d="M9.75615 19.5117H7.80493V21.4629H9.75615V19.5117Z" fill="black"/>
<path d="M11.7073 19.5117H9.7561V21.4629H11.7073V19.5117Z" fill="black"/>
<path d="M13.6586 19.5117H11.7074V21.4629H13.6586V19.5117Z" fill="black"/>
<path d="M15.6098 19.5117H13.6586V21.4629H15.6098V19.5117Z" fill="black"/>
<path d="M17.561 19.5117H15.6097V21.4629H17.561V19.5117Z" fill="black"/>
<path d="M29.2684 19.5117H27.3171V21.4629H29.2684V19.5117Z" fill="black"/>
<path d="M31.2195 19.5117H29.2683V21.4629H31.2195V19.5117Z" fill="black"/>
<path d="M35.122 19.5117H33.1708V21.4629H35.122V19.5117Z" fill="black"/>
<path d="M37.0732 19.5117H35.1219V21.4629H37.0732V19.5117Z" fill="black"/>
<path d="M39.0245 19.5117H37.0732V21.4629H39.0245V19.5117Z" fill="black"/>
<path d="M44.8781 19.5117H42.9269V21.4629H44.8781V19.5117Z" fill="black"/>
<path d="M48.7806 19.5117H46.8293V21.4629H48.7806V19.5117Z" fill="black"/>
<path d="M50.7317 19.5117H48.7805V21.4629H50.7317V19.5117Z" fill="black"/>
<path d="M52.6829 19.5117H50.7317V21.4629H52.6829V19.5117Z" fill="black"/>
<path d="M54.6342 19.5117H52.683V21.4629H54.6342V19.5117Z" fill="black"/>
<path d="M56.5854 19.5117H54.6342V21.4629H56.5854V19.5117Z" fill="black"/>
<path d="M60.4878 19.5117H58.5366V21.4629H60.4878V19.5117Z" fill="black"/>
<path d="M64.3903 19.5117H62.4391V21.4629H64.3903V19.5117Z" fill="black"/>
<path d="M66.3415 19.5117H64.3903V21.4629H66.3415V19.5117Z" fill="black"/>
<path d="M68.2928 19.5117H66.3416V21.4629H68.2928V19.5117Z" fill="black"/>
<path d="M70.2439 19.5117H68.2927V21.4629H70.2439V19.5117Z" fill="black"/>
<path d="M72.1951 19.5117H70.2439V21.4629H72.1951V19.5117Z" fill="black"/>
<path d="M11.7073 21.4629H9.7561V23.4141H11.7073V21.4629Z" fill="black"/>
<path d="M13.6586 21.4629H11.7074V23.4141H13.6586V21.4629Z" fill="black"/>
<path d="M15.6098 21.4629H13.6586V23.4141H15.6098V21.4629Z" fill="black"/>
<path d="M19.5123 21.4629H17.561V23.4141H19.5123V21.4629Z" fill="black"/>
<path d="M23.4147 21.4629H21.4635V23.4141H23.4147V21.4629Z" fill="black"/>
<path d="M25.3659 21.4629H23.4147V23.4141H25.3659V21.4629Z" fill="black"/>
<path d="M29.2684 21.4629H27.3171V23.4141H29.2684V21.4629Z" fill="black"/>
<path d="M33.1707 21.4629H31.2195V23.4141H33.1707V21.4629Z" fill="black"/>
<path d="M35.122 21.4629H33.1708V23.4141H35.122V21.4629Z" fill="black"/>
<path d="M39.0245 21.4629H37.0732V23.4141H39.0245V21.4629Z" fill="black"/>
<path d="M40.9756 21.4629H39.0244V23.4141H40.9756V21.4629Z" fill="black"/>
<path d="M42.9268 21.4629H40.9756V23.4141H42.9268V21.4629Z" fill="black"/>
<path d="M46.8293 21.4629H44.8781V23.4141H46.8293V21.4629Z" fill="black"/>
<path d="M50.7317 21.4629H48.7805V23.4141H50.7317V21.4629Z" fill="black"/>
<path d="M60.4878 21.4629H58.5366V23.4141H60.4878V21.4629Z" fill="black"/>
<path d="M66.3415 21.4629H64.3903V23.4141H66.3415V21.4629Z" fill="black"/>
<path d="M74.1464 21.4629H72.1952V23.4141H74.1464V21.4629Z" fill="black"/>
<path d="M5.85369 23.4141H3.90247V25.3653H5.85369V23.4141Z" fill="black"/>
<path d="M7.80486 23.4141H5.85364V25.3653H7.80486V23.4141Z" fill="black"/>
<path d="M9.75615 23.4141H7.80493V25.3653H9.75615V23.4141Z" fill="black"/>
<path d="M13.6586 23.4141H11.7074V25.3653H13.6586V23.4141Z" fill="black"/>
<path d="M17.561 23.4141H15.6097V25.3653H17.561V23.4141Z" fill="black"/>
<path d="M19.5123 23.4141H17.561V25.3653H19.5123V23.4141Z" fill="black"/>
<path d="M23.4147 23.4141H21.4635V25.3653H23.4147V23.4141Z" fill="black"/>
<path d="M25.3659 23.4141H23.4147V25.3653H25.3659V23.4141Z" fill="black"/>
<path d="M27.3171 23.4141H25.3658V25.3653H27.3171V23.4141Z" fill="black"/>
<path d="M31.2195 23.4141H29.2683V25.3653H31.2195V23.4141Z" fill="black"/>
<path d="M33.1707 23.4141H31.2195V25.3653H33.1707V23.4141Z" fill="black"/>
<path d="M35.122 23.4141H33.1708V25.3653H35.122V23.4141Z" fill="black"/>
<path d="M37.0732 23.4141H35.1219V25.3653H37.0732V23.4141Z" fill="black"/>
<path d="M39.0245 23.4141H37.0732V25.3653H39.0245V23.4141Z" fill="black"/>
<path d="M46.8293 23.4141H44.8781V25.3653H46.8293V23.4141Z" fill="black"/>
<path d="M48.7806 23.4141H46.8293V25.3653H48.7806V23.4141Z" fill="black"/>
<path d="M54.6342 23.4141H52.683V25.3653H54.6342V23.4141Z" fill="black"/>
<path d="M56.5854 23.4141H54.6342V25.3653H56.5854V23.4141Z" fill="black"/>
<path d="M58.5367 23.4141H56.5854V25.3653H58.5367V23.4141Z" fill="black"/>
<path d="M64.3903 23.4141H62.4391V25.3653H64.3903V23.4141Z" fill="black"/>
<path d="M66.3415 23.4141H64.3903V25.3653H66.3415V23.4141Z" fill="black"/>
<path d="M68.2928 23.4141H66.3416V25.3653H68.2928V23.4141Z" fill="black"/>
<path d="M70.2439 23.4141H68.2927V25.3653H70.2439V23.4141Z" fill="black"/>
<path d="M74.1464 23.4141H72.1952V25.3653H74.1464V23.4141Z" fill="black"/>
<path d="M76.0976 23.4141H74.1464V25.3653H76.0976V23.4141Z" fill="black"/>
<path d="M5.85369 25.3662H3.90247V27.3174H5.85369V25.3662Z" fill="black"/>
<path d="M7.80486 25.3662H5.85364V27.3174H7.80486V25.3662Z" fill="black"/>
<path d="M9.75615 25.3662H7.80493V27.3174H9.75615V25.3662Z" fill="black"/>
<path d="M13.6586 25.3662H11.7074V27.3174H13.6586V25.3662Z" fill="black"/>
<path d="M19.5123 25.3662H17.561V27.3174H19.5123V25.3662Z" fill="black"/>
<path d="M23.4147 25.3662H21.4635V27.3174H23.4147V25.3662Z" fill="black"/>
<path d="M25.3659 25.3662H23.4147V27.3174H25.3659V25.3662Z" fill="black"/>
<path d="M27.3171 25.3662H25.3658V27.3174H27.3171V25.3662Z" fill="black"/>
<path d="M35.122 25.3662H33.1708V27.3174H35.122V25.3662Z" fill="black"/>
<path d="M44.8781 25.3662H42.9269V27.3174H44.8781V25.3662Z" fill="black"/>
<path d="M46.8293 25.3662H44.8781V27.3174H46.8293V25.3662Z" fill="black"/>
<path d="M56.5854 25.3662H54.6342V27.3174H56.5854V25.3662Z" fill="black"/>
<path d="M58.5367 25.3662H56.5854V27.3174H58.5367V25.3662Z" fill="black"/>
<path d="M64.3903 25.3662H62.4391V27.3174H64.3903V25.3662Z" fill="black"/>
<path d="M70.2439 25.3662H68.2927V27.3174H70.2439V25.3662Z" fill="black"/>
<path d="M76.0976 25.3662H74.1464V27.3174H76.0976V25.3662Z" fill="black"/>
<path d="M5.85369 27.3174H3.90247V29.2686H5.85369V27.3174Z" fill="black"/>
<path d="M7.80486 27.3174H5.85364V29.2686H7.80486V27.3174Z" fill="black"/>
<path d="M11.7073 27.3174H9.7561V29.2686H11.7073V27.3174Z" fill="black"/>
<path d="M15.6098 27.3174H13.6586V29.2686H15.6098V27.3174Z" fill="black"/>
<path d="M17.561 27.3174H15.6097V29.2686H17.561V27.3174Z" fill="black"/>
<path d="M25.3659 27.3174H23.4147V29.2686H25.3659V27.3174Z" fill="black"/>
<path d="M27.3171 27.3174H25.3658V29.2686H27.3171V27.3174Z" fill="black"/>
<path d="M35.122 27.3174H33.1708V29.2686H35.122V27.3174Z" fill="black"/>
<path d="M37.0732 27.3174H35.1219V29.2686H37.0732V27.3174Z" fill="black"/>
<path d="M39.0245 27.3174H37.0732V29.2686H39.0245V27.3174Z" fill="black"/>
<path d="M42.9268 27.3174H40.9756V29.2686H42.9268V27.3174Z" fill="black"/>
<path d="M44.8781 27.3174H42.9269V29.2686H44.8781V27.3174Z" fill="black"/>
<path d="M48.7806 27.3174H46.8293V29.2686H48.7806V27.3174Z" fill="black"/>
<path d="M52.6829 27.3174H50.7317V29.2686H52.6829V27.3174Z" fill="black"/>
<path d="M54.6342 27.3174H52.683V29.2686H54.6342V27.3174Z" fill="black"/>
<path d="M56.5854 27.3174H54.6342V29.2686H56.5854V27.3174Z" fill="black"/>
<path d="M62.439 27.3174H60.4878V29.2686H62.439V27.3174Z" fill="black"/>
<path d="M64.3903 27.3174H62.4391V29.2686H64.3903V27.3174Z" fill="black"/>
<path d="M66.3415 27.3174H64.3903V29.2686H66.3415V27.3174Z" fill="black"/>
<path d="M68.2928 27.3174H66.3416V29.2686H68.2928V27.3174Z" fill="black"/>
<path d="M72.1951 27.3174H70.2439V29.2686H72.1951V27.3174Z" fill="black"/>
<path d="M74.1464 27.3174H72.1952V29.2686H74.1464V27.3174Z" fill="black"/>
<path d="M76.0976 27.3174H74.1464V29.2686H76.0976V27.3174Z" fill="black"/>
<path d="M9.75615 29.2686H7.80493V31.2198H9.75615V29.2686Z" fill="black"/>
<path d="M11.7073 29.2686H9.7561V31.2198H11.7073V29.2686Z" fill="black"/>
<path d="M15.6098 29.2686H13.6586V31.2198H15.6098V29.2686Z" fill="black"/>
<path d="M19.5123 29.2686H17.561V31.2198H19.5123V29.2686Z" fill="black"/>
<path d="M27.3171 29.2686H25.3658V31.2198H27.3171V29.2686Z" fill="black"/>
<path d="M31.2195 29.2686H29.2683V31.2198H31.2195V29.2686Z" fill="black"/>
<path d="M33.1707 29.2686H31.2195V31.2198H33.1707V29.2686Z" fill="black"/>
<path d="M37.0732 29.2686H35.1219V31.2198H37.0732V29.2686Z" fill="black"/>
<path d="M39.0245 29.2686H37.0732V31.2198H39.0245V29.2686Z" fill="black"/>
<path d="M40.9756 29.2686H39.0244V31.2198H40.9756V29.2686Z" fill="black"/>
<path d="M42.9268 29.2686H40.9756V31.2198H42.9268V29.2686Z" fill="black"/>
<path d="M44.8781 29.2686H42.9269V31.2198H44.8781V29.2686Z" fill="black"/>
<path d="M50.7317 29.2686H48.7805V31.2198H50.7317V29.2686Z" fill="black"/>
<path d="M52.6829 29.2686H50.7317V31.2198H52.6829V29.2686Z" fill="black"/>
<path d="M60.4878 29.2686H58.5366V31.2198H60.4878V29.2686Z" fill="black"/>
<path d="M66.3415 29.2686H64.3903V31.2198H66.3415V29.2686Z" fill="black"/>
<path d="M7.80486 31.2197H5.85364V33.1709H7.80486V31.2197Z" fill="black"/>
<path d="M9.75615 31.2197H7.80493V33.1709H9.75615V31.2197Z" fill="black"/>
<path d="M13.6586 31.2197H11.7074V33.1709H13.6586V31.2197Z" fill="black"/>
<path d="M15.6098 31.2197H13.6586V33.1709H15.6098V31.2197Z" fill="black"/>
<path d="M17.561 31.2197H15.6097V33.1709H17.561V31.2197Z" fill="black"/>
<path d="M19.5123 31.2197H17.561V33.1709H19.5123V31.2197Z" fill="black"/>
<path d="M27.3171 31.2197H25.3658V33.1709H27.3171V31.2197Z" fill="black"/>
<path d="M29.2684 31.2197H27.3171V33.1709H29.2684V31.2197Z" fill="black"/>
<path d="M33.1707 31.2197H31.2195V33.1709H33.1707V31.2197Z" fill="black"/>
<path d="M35.122 31.2197H33.1708V33.1709H35.122V31.2197Z" fill="black"/>
<path d="M39.0245 31.2197H37.0732V33.1709H39.0245V31.2197Z" fill="black"/>
<path d="M46.8293 31.2197H44.8781V33.1709H46.8293V31.2197Z" fill="black"/>
<path d="M48.7806 31.2197H46.8293V33.1709H48.7806V31.2197Z" fill="black"/>
<path d="M58.5367 31.2197H56.5854V33.1709H58.5367V31.2197Z" fill="black"/>
<path d="M60.4878 31.2197H58.5366V33.1709H60.4878V31.2197Z" fill="black"/>
<path d="M66.3415 31.2197H64.3903V33.1709H66.3415V31.2197Z" fill="black"/>
<path d="M68.2928 31.2197H66.3416V33.1709H68.2928V31.2197Z" fill="black"/>
<path d="M70.2439 31.2197H68.2927V33.1709H70.2439V31.2197Z" fill="black"/>
<path d="M74.1464 31.2197H72.1952V33.1709H74.1464V31.2197Z" fill="black"/>
<path d="M76.0976 31.2197H74.1464V33.1709H76.0976V31.2197Z" fill="black"/>
<path d="M5.85369 33.1709H3.90247V35.1221H5.85369V33.1709Z" fill="black"/>
<path d="M7.80486 33.1709H5.85364V35.1221H7.80486V33.1709Z" fill="black"/>
<path d="M9.75615 33.1709H7.80493V35.1221H9.75615V33.1709Z" fill="black"/>
<path d="M11.7073 33.1709H9.7561V35.1221H11.7073V33.1709Z" fill="black"/>
<path d="M13.6586 33.1709H11.7074V35.1221H13.6586V33.1709Z" fill="black"/>
<path d="M21.4634 33.1709H19.5122V35.1221H21.4634V33.1709Z" fill="black"/>
<path d="M27.3171 33.1709H25.3658V35.1221H27.3171V33.1709Z" fill="black"/>
<path d="M35.122 33.1709H33.1708V35.1221H35.122V33.1709Z" fill="black"/>
<path d="M37.0732 33.1709H35.1219V35.1221H37.0732V33.1709Z" fill="black"/>
<path d="M46.8293 33.1709H44.8781V35.1221H46.8293V33.1709Z" fill="black"/>
<path d="M56.5854 33.1709H54.6342V35.1221H56.5854V33.1709Z" fill="black"/>
<path d="M60.4878 33.1709H58.5366V35.1221H60.4878V33.1709Z" fill="black"/>
<path d="M64.3903 33.1709H62.4391V35.1221H64.3903V33.1709Z" fill="black"/>
<path d="M66.3415 33.1709H64.3903V35.1221H66.3415V33.1709Z" fill="black"/>
<path d="M68.2928 33.1709H66.3416V35.1221H68.2928V33.1709Z" fill="black"/>
<path d="M74.1464 33.1709H72.1952V35.1221H74.1464V33.1709Z" fill="black"/>
<path d="M76.0976 33.1709H74.1464V35.1221H76.0976V33.1709Z" fill="black"/>
<path d="M11.7073 35.1221H9.7561V37.0733H11.7073V35.1221Z" fill="black"/>
<path d="M13.6586 35.1221H11.7074V37.0733H13.6586V35.1221Z" fill="black"/>
<path d="M15.6098 35.1221H13.6586V37.0733H15.6098V35.1221Z" fill="black"/>
<path d="M17.561 35.1221H15.6097V37.0733H17.561V35.1221Z" fill="black"/>
<path d="M21.4634 35.1221H19.5122V37.0733H21.4634V35.1221Z" fill="black"/>
<path d="M23.4147 35.1221H21.4635V37.0733H23.4147V35.1221Z" fill="black"/>
<path d="M25.3659 35.1221H23.4147V37.0733H25.3659V35.1221Z" fill="black"/>
<path d="M27.3171 35.1221H25.3658V37.0733H27.3171V35.1221Z" fill="black"/>
<path d="M33.1707 35.1221H31.2195V37.0733H33.1707V35.1221Z" fill="black"/>
<path d="M40.9756 35.1221H39.0244V37.0733H40.9756V35.1221Z" fill="black"/>
<path d="M48.7806 35.1221H46.8293V37.0733H48.7806V35.1221Z" fill="black"/>
<path d="M50.7317 35.1221H48.7805V37.0733H50.7317V35.1221Z" fill="black"/>
<path d="M52.6829 35.1221H50.7317V37.0733H52.6829V35.1221Z" fill="black"/>
<path d="M54.6342 35.1221H52.683V37.0733H54.6342V35.1221Z" fill="black"/>
<path d="M56.5854 35.1221H54.6342V37.0733H56.5854V35.1221Z" fill="black"/>
<path d="M58.5367 35.1221H56.5854V37.0733H58.5367V35.1221Z" fill="black"/>
<path d="M62.439 35.1221H60.4878V37.0733H62.439V35.1221Z" fill="black"/>
<path d="M64.3903 35.1221H62.4391V37.0733H64.3903V35.1221Z" fill="black"/>
<path d="M68.2928 35.1221H66.3416V37.0733H68.2928V35.1221Z" fill="black"/>
<path d="M72.1951 35.1221H70.2439V37.0733H72.1951V35.1221Z" fill="black"/>
<path d="M5.85369 37.0732H3.90247V39.0245H5.85369V37.0732Z" fill="black"/>
<path d="M11.7073 37.0732H9.7561V39.0245H11.7073V37.0732Z" fill="black"/>
<path d="M15.6098 37.0732H13.6586V39.0245H15.6098V37.0732Z" fill="black"/>
<path d="M21.4634 37.0732H19.5122V39.0245H21.4634V37.0732Z" fill="black"/>
<path d="M25.3659 37.0732H23.4147V39.0245H25.3659V37.0732Z" fill="black"/>
<path d="M27.3171 37.0732H25.3658V39.0245H27.3171V37.0732Z" fill="black"/>
<path d="M31.2195 37.0732H29.2683V39.0245H31.2195V37.0732Z" fill="black"/>
<path d="M33.1707 37.0732H31.2195V39.0245H33.1707V37.0732Z" fill="black"/>
<path d="M35.122 37.0732H33.1708V39.0245H35.122V37.0732Z" fill="black"/>
<path d="M37.0732 37.0732H35.1219V39.0245H37.0732V37.0732Z" fill="black"/>
<path d="M40.9756 37.0732H39.0244V39.0245H40.9756V37.0732Z" fill="black"/>
<path d="M42.9268 37.0732H40.9756V39.0245H42.9268V37.0732Z" fill="black"/>
<path d="M44.8781 37.0732H42.9269V39.0245H44.8781V37.0732Z" fill="black"/>
<path d="M50.7317 37.0732H48.7805V39.0245H50.7317V37.0732Z" fill="black"/>
<path d="M54.6342 37.0732H52.683V39.0245H54.6342V37.0732Z" fill="black"/>
<path d="M60.4878 37.0732H58.5366V39.0245H60.4878V37.0732Z" fill="black"/>
<path d="M62.439 37.0732H60.4878V39.0245H62.439V37.0732Z" fill="black"/>
<path d="M66.3415 37.0732H64.3903V39.0245H66.3415V37.0732Z" fill="black"/>
<path d="M72.1951 37.0732H70.2439V39.0245H72.1951V37.0732Z" fill="black"/>
<path d="M74.1464 37.0732H72.1952V39.0245H74.1464V37.0732Z" fill="black"/>
<path d="M9.75615 39.0244H7.80493V40.9756H9.75615V39.0244Z" fill="black"/>
<path d="M11.7073 39.0244H9.7561V40.9756H11.7073V39.0244Z" fill="black"/>
<path d="M15.6098 39.0244H13.6586V40.9756H15.6098V39.0244Z" fill="black"/>
<path d="M17.561 39.0244H15.6097V40.9756H17.561V39.0244Z" fill="black"/>
<path d="M19.5123 39.0244H17.561V40.9756H19.5123V39.0244Z" fill="black"/>
<path d="M21.4634 39.0244H19.5122V40.9756H21.4634V39.0244Z" fill="black"/>
<path d="M23.4147 39.0244H21.4635V40.9756H23.4147V39.0244Z" fill="black"/>
<path d="M25.3659 39.0244H23.4147V40.9756H25.3659V39.0244Z" fill="black"/>
<path d="M27.3171 39.0244H25.3658V40.9756H27.3171V39.0244Z" fill="black"/>
<path d="M29.2684 39.0244H27.3171V40.9756H29.2684V39.0244Z" fill="black"/>
<path d="M31.2195 39.0244H29.2683V40.9756H31.2195V39.0244Z" fill="black"/>
<path d="M33.1707 39.0244H31.2195V40.9756H33.1707V39.0244Z" fill="black"/>
<path d="M48.7806 39.0244H46.8293V40.9756H48.7806V39.0244Z" fill="black"/>
<path d="M52.6829 39.0244H50.7317V40.9756H52.6829V39.0244Z" fill="black"/>
<path d="M56.5854 39.0244H54.6342V40.9756H56.5854V39.0244Z" fill="black"/>
<path d="M58.5367 39.0244H56.5854V40.9756H58.5367V39.0244Z" fill="black"/>
<path d="M60.4878 39.0244H58.5366V40.9756H60.4878V39.0244Z" fill="black"/>
<path d="M62.439 39.0244H60.4878V40.9756H62.439V39.0244Z" fill="black"/>
<path d="M68.2928 39.0244H66.3416V40.9756H68.2928V39.0244Z" fill="black"/>
<path d="M74.1464 39.0244H72.1952V40.9756H74.1464V39.0244Z" fill="black"/>
<path d="M76.0976 39.0244H74.1464V40.9756H76.0976V39.0244Z" fill="black"/>
<path d="M9.75615 40.9756H7.80493V42.9268H9.75615V40.9756Z" fill="black"/>
<path d="M19.5123 40.9756H17.561V42.9268H19.5123V40.9756Z" fill="black"/>
<path d="M27.3171 40.9756H25.3658V42.9268H27.3171V40.9756Z" fill="black"/>
<path d="M33.1707 40.9756H31.2195V42.9268H33.1707V40.9756Z" fill="black"/>
<path d="M37.0732 40.9756H35.1219V42.9268H37.0732V40.9756Z" fill="black"/>
<path d="M40.9756 40.9756H39.0244V42.9268H40.9756V40.9756Z" fill="black"/>
<path d="M46.8293 40.9756H44.8781V42.9268H46.8293V40.9756Z" fill="black"/>
<path d="M48.7806 40.9756H46.8293V42.9268H48.7806V40.9756Z" fill="black"/>
<path d="M50.7317 40.9756H48.7805V42.9268H50.7317V40.9756Z" fill="black"/>
<path d="M52.6829 40.9756H50.7317V42.9268H52.6829V40.9756Z" fill="black"/>
<path d="M64.3903 40.9756H62.4391V42.9268H64.3903V40.9756Z" fill="black"/>
<path d="M66.3415 40.9756H64.3903V42.9268H66.3415V40.9756Z" fill="black"/>
<path d="M68.2928 40.9756H66.3416V42.9268H68.2928V40.9756Z" fill="black"/>
<path d="M76.0976 40.9756H74.1464V42.9268H76.0976V40.9756Z" fill="black"/>
<path d="M9.75615 42.9268H7.80493V44.878H9.75615V42.9268Z" fill="black"/>
<path d="M11.7073 42.9268H9.7561V44.878H11.7073V42.9268Z" fill="black"/>
<path d="M13.6586 42.9268H11.7074V44.878H13.6586V42.9268Z" fill="black"/>
<path d="M17.561 42.9268H15.6097V44.878H17.561V42.9268Z" fill="black"/>
<path d="M19.5123 42.9268H17.561V44.878H19.5123V42.9268Z" fill="black"/>
<path d="M27.3171 42.9268H25.3658V44.878H27.3171V42.9268Z" fill="black"/>
<path d="M29.2684 42.9268H27.3171V44.878H29.2684V42.9268Z" fill="black"/>
<path d="M33.1707 42.9268H31.2195V44.878H33.1707V42.9268Z" fill="black"/>
<path d="M39.0245 42.9268H37.0732V44.878H39.0245V42.9268Z" fill="black"/>
<path d="M42.9268 42.9268H40.9756V44.878H42.9268V42.9268Z" fill="black"/>
<path d="M44.8781 42.9268H42.9269V44.878H44.8781V42.9268Z" fill="black"/>
<path d="M48.7806 42.9268H46.8293V44.878H48.7806V42.9268Z" fill="black"/>
<path d="M52.6829 42.9268H50.7317V44.878H52.6829V42.9268Z" fill="black"/>
<path d="M54.6342 42.9268H52.683V44.878H54.6342V42.9268Z" fill="black"/>
<path d="M56.5854 42.9268H54.6342V44.878H56.5854V42.9268Z" fill="black"/>
<path d="M58.5367 42.9268H56.5854V44.878H58.5367V42.9268Z" fill="black"/>
<path d="M62.439 42.9268H60.4878V44.878H62.439V42.9268Z" fill="black"/>
<path d="M64.3903 42.9268H62.4391V44.878H64.3903V42.9268Z" fill="black"/>
<path d="M68.2928 42.9268H66.3416V44.878H68.2928V42.9268Z" fill="black"/>
<path d="M70.2439 42.9268H68.2927V44.878H70.2439V42.9268Z" fill="black"/>
<path d="M72.1951 42.9268H70.2439V44.878H72.1951V42.9268Z" fill="black"/>
<path d="M5.85369 44.8779H3.90247V46.8291H5.85369V44.8779Z" fill="black"/>
<path d="M7.80486 44.8779H5.85364V46.8291H7.80486V44.8779Z" fill="black"/>
<path d="M9.75615 44.8779H7.80493V46.8291H9.75615V44.8779Z" fill="black"/>
<path d="M13.6586 44.8779H11.7074V46.8291H13.6586V44.8779Z" fill="black"/>
<path d="M19.5123 44.8779H17.561V46.8291H19.5123V44.8779Z" fill="black"/>
<path d="M27.3171 44.8779H25.3658V46.8291H27.3171V44.8779Z" fill="black"/>
<path d="M29.2684 44.8779H27.3171V46.8291H29.2684V44.8779Z" fill="black"/>
<path d="M37.0732 44.8779H35.1219V46.8291H37.0732V44.8779Z" fill="black"/>
<path d="M39.0245 44.8779H37.0732V46.8291H39.0245V44.8779Z" fill="black"/>
<path d="M40.9756 44.8779H39.0244V46.8291H40.9756V44.8779Z" fill="black"/>
<path d="M42.9268 44.8779H40.9756V46.8291H42.9268V44.8779Z" fill="black"/>
<path d="M44.8781 44.8779H42.9269V46.8291H44.8781V44.8779Z" fill="black"/>
<path d="M48.7806 44.8779H46.8293V46.8291H48.7806V44.8779Z" fill="black"/>
<path d="M50.7317 44.8779H48.7805V46.8291H50.7317V44.8779Z" fill="black"/>
<path d="M54.6342 44.8779H52.683V46.8291H54.6342V44.8779Z" fill="black"/>
<path d="M60.4878 44.8779H58.5366V46.8291H60.4878V44.8779Z" fill="black"/>
<path d="M70.2439 44.8779H68.2927V46.8291H70.2439V44.8779Z" fill="black"/>
<path d="M5.85369 46.8291H3.90247V48.7803H5.85369V46.8291Z" fill="black"/>
<path d="M7.80486 46.8291H5.85364V48.7803H7.80486V46.8291Z" fill="black"/>
<path d="M11.7073 46.8291H9.7561V48.7803H11.7073V46.8291Z" fill="black"/>
<path d="M17.561 46.8291H15.6097V48.7803H17.561V46.8291Z" fill="black"/>
<path d="M21.4634 46.8291H19.5122V48.7803H21.4634V46.8291Z" fill="black"/>
<path d="M23.4147 46.8291H21.4635V48.7803H23.4147V46.8291Z" fill="black"/>
<path d="M35.122 46.8291H33.1708V48.7803H35.122V46.8291Z" fill="black"/>
<path d="M37.0732 46.8291H35.1219V48.7803H37.0732V46.8291Z" fill="black"/>
<path d="M39.0245 46.8291H37.0732V48.7803H39.0245V46.8291Z" fill="black"/>
<path d="M44.8781 46.8291H42.9269V48.7803H44.8781V46.8291Z" fill="black"/>
<path d="M46.8293 46.8291H44.8781V48.7803H46.8293V46.8291Z" fill="black"/>
<path d="M54.6342 46.8291H52.683V48.7803H54.6342V46.8291Z" fill="black"/>
<path d="M56.5854 46.8291H54.6342V48.7803H56.5854V46.8291Z" fill="black"/>
<path d="M58.5367 46.8291H56.5854V48.7803H58.5367V46.8291Z" fill="black"/>
<path d="M62.439 46.8291H60.4878V48.7803H62.439V46.8291Z" fill="black"/>
<path d="M64.3903 46.8291H62.4391V48.7803H64.3903V46.8291Z" fill="black"/>
<path d="M66.3415 46.8291H64.3903V48.7803H66.3415V46.8291Z" fill="black"/>
<path d="M68.2928 46.8291H66.3416V48.7803H68.2928V46.8291Z" fill="black"/>
<path d="M70.2439 46.8291H68.2927V48.7803H70.2439V46.8291Z" fill="black"/>
<path d="M74.1464 46.8291H72.1952V48.7803H74.1464V46.8291Z" fill="black"/>
<path d="M76.0976 46.8291H74.1464V48.7803H76.0976V46.8291Z" fill="black"/>
<path d="M5.85369 48.7803H3.90247V50.7315H5.85369V48.7803Z" fill="black"/>
<path d="M7.80486 48.7803H5.85364V50.7315H7.80486V48.7803Z" fill="black"/>
<path d="M13.6586 48.7803H11.7074V50.7315H13.6586V48.7803Z" fill="black"/>
<path d="M19.5123 48.7803H17.561V50.7315H19.5123V48.7803Z" fill="black"/>
<path d="M23.4147 48.7803H21.4635V50.7315H23.4147V48.7803Z" fill="black"/>
<path d="M25.3659 48.7803H23.4147V50.7315H25.3659V48.7803Z" fill="black"/>
<path d="M27.3171 48.7803H25.3658V50.7315H27.3171V48.7803Z" fill="black"/>
<path d="M29.2684 48.7803H27.3171V50.7315H29.2684V48.7803Z" fill="black"/>
<path d="M31.2195 48.7803H29.2683V50.7315H31.2195V48.7803Z" fill="black"/>
<path d="M35.122 48.7803H33.1708V50.7315H35.122V48.7803Z" fill="black"/>
<path d="M39.0245 48.7803H37.0732V50.7315H39.0245V48.7803Z" fill="black"/>
<path d="M40.9756 48.7803H39.0244V50.7315H40.9756V48.7803Z" fill="black"/>
<path d="M46.8293 48.7803H44.8781V50.7315H46.8293V48.7803Z" fill="black"/>
<path d="M48.7806 48.7803H46.8293V50.7315H48.7806V48.7803Z" fill="black"/>
<path d="M50.7317 48.7803H48.7805V50.7315H50.7317V48.7803Z" fill="black"/>
<path d="M60.4878 48.7803H58.5366V50.7315H60.4878V48.7803Z" fill="black"/>
<path d="M62.439 48.7803H60.4878V50.7315H62.439V48.7803Z" fill="black"/>
<path d="M64.3903 48.7803H62.4391V50.7315H64.3903V48.7803Z" fill="black"/>
<path d="M66.3415 48.7803H64.3903V50.7315H66.3415V48.7803Z" fill="black"/>
<path d="M68.2928 48.7803H66.3416V50.7315H68.2928V48.7803Z" fill="black"/>
<path d="M74.1464 48.7803H72.1952V50.7315H74.1464V48.7803Z" fill="black"/>
<path d="M5.85369 50.7314H3.90247V52.6827H5.85369V50.7314Z" fill="black"/>
<path d="M11.7073 50.7314H9.7561V52.6827H11.7073V50.7314Z" fill="black"/>
<path d="M17.561 50.7314H15.6097V52.6827H17.561V50.7314Z" fill="black"/>
<path d="M19.5123 50.7314H17.561V52.6827H19.5123V50.7314Z" fill="black"/>
<path d="M21.4634 50.7314H19.5122V52.6827H21.4634V50.7314Z" fill="black"/>
<path d="M27.3171 50.7314H25.3658V52.6827H27.3171V50.7314Z" fill="black"/>
<path d="M29.2684 50.7314H27.3171V52.6827H29.2684V50.7314Z" fill="black"/>
<path d="M31.2195 50.7314H29.2683V52.6827H31.2195V50.7314Z" fill="black"/>
<path d="M33.1707 50.7314H31.2195V52.6827H33.1707V50.7314Z" fill="black"/>
<path d="M37.0732 50.7314H35.1219V52.6827H37.0732V50.7314Z" fill="black"/>
<path d="M48.7806 50.7314H46.8293V52.6827H48.7806V50.7314Z" fill="black"/>
<path d="M50.7317 50.7314H48.7805V52.6827H50.7317V50.7314Z" fill="black"/>
<path d="M54.6342 50.7314H52.683V52.6827H54.6342V50.7314Z" fill="black"/>
<path d="M56.5854 50.7314H54.6342V52.6827H56.5854V50.7314Z" fill="black"/>
<path d="M62.439 50.7314H60.4878V52.6827H62.439V50.7314Z" fill="black"/>
<path d="M64.3903 50.7314H62.4391V52.6827H64.3903V50.7314Z" fill="black"/>
<path d="M68.2928 50.7314H66.3416V52.6827H68.2928V50.7314Z" fill="black"/>
<path d="M72.1951 50.7314H70.2439V52.6827H72.1951V50.7314Z" fill="black"/>
<path d="M74.1464 50.7314H72.1952V52.6827H74.1464V50.7314Z" fill="black"/>
<path d="M5.85369 52.6826H3.90247V54.6338H5.85369V52.6826Z" fill="black"/>
<path d="M9.75615 52.6826H7.80493V54.6338H9.75615V52.6826Z" fill="black"/>
<path d="M11.7073 52.6826H9.7561V54.6338H11.7073V52.6826Z" fill="black"/>
<path d="M13.6586 52.6826H11.7074V54.6338H13.6586V52.6826Z" fill="black"/>
<path d="M15.6098 52.6826H13.6586V54.6338H15.6098V52.6826Z" fill="black"/>
<path d="M19.5123 52.6826H17.561V54.6338H19.5123V52.6826Z" fill="black"/>
<path d="M21.4634 52.6826H19.5122V54.6338H21.4634V52.6826Z" fill="black"/>
<path d="M35.122 52.6826H33.1708V54.6338H35.122V52.6826Z" fill="black"/>
<path d="M40.9756 52.6826H39.0244V54.6338H40.9756V52.6826Z" fill="black"/>
<path d="M42.9268 52.6826H40.9756V54.6338H42.9268V52.6826Z" fill="black"/>
<path d="M44.8781 52.6826H42.9269V54.6338H44.8781V52.6826Z" fill="black"/>
<path d="M46.8293 52.6826H44.8781V54.6338H46.8293V52.6826Z" fill="black"/>
<path d="M48.7806 52.6826H46.8293V54.6338H48.7806V52.6826Z" fill="black"/>
<path d="M50.7317 52.6826H48.7805V54.6338H50.7317V52.6826Z" fill="black"/>
<path d="M60.4878 52.6826H58.5366V54.6338H60.4878V52.6826Z" fill="black"/>
<path d="M70.2439 52.6826H68.2927V54.6338H70.2439V52.6826Z" fill="black"/>
<path d="M5.85369 54.6338H3.90247V56.585H5.85369V54.6338Z" fill="black"/>
<path d="M9.75615 54.6338H7.80493V56.585H9.75615V54.6338Z" fill="black"/>
<path d="M13.6586 54.6338H11.7074V56.585H13.6586V54.6338Z" fill="black"/>
<path d="M17.561 54.6338H15.6097V56.585H17.561V54.6338Z" fill="black"/>
<path d="M21.4634 54.6338H19.5122V56.585H21.4634V54.6338Z" fill="black"/>
<path d="M23.4147 54.6338H21.4635V56.585H23.4147V54.6338Z" fill="black"/>
<path d="M25.3659 54.6338H23.4147V56.585H25.3659V54.6338Z" fill="black"/>
<path d="M27.3171 54.6338H25.3658V56.585H27.3171V54.6338Z" fill="black"/>
<path d="M31.2195 54.6338H29.2683V56.585H31.2195V54.6338Z" fill="black"/>
<path d="M35.122 54.6338H33.1708V56.585H35.122V54.6338Z" fill="black"/>
<path d="M37.0732 54.6338H35.1219V56.585H37.0732V54.6338Z" fill="black"/>
<path d="M56.5854 54.6338H54.6342V56.585H56.5854V54.6338Z" fill="black"/>
<path d="M58.5367 54.6338H56.5854V56.585H58.5367V54.6338Z" fill="black"/>
<path d="M60.4878 54.6338H58.5366V56.585H60.4878V54.6338Z" fill="black"/>
<path d="M64.3903 54.6338H62.4391V56.585H64.3903V54.6338Z" fill="black"/>
<path d="M66.3415 54.6338H64.3903V56.585H66.3415V54.6338Z" fill="black"/>
<path d="M72.1951 54.6338H70.2439V56.585H72.1951V54.6338Z" fill="black"/>
<path d="M74.1464 54.6338H72.1952V56.585H74.1464V54.6338Z" fill="black"/>
<path d="M76.0976 54.6338H74.1464V56.585H76.0976V54.6338Z" fill="black"/>
<path d="M5.85369 56.585H3.90247V58.5362H5.85369V56.585Z" fill="black"/>
<path d="M9.75615 56.585H7.80493V58.5362H9.75615V56.585Z" fill="black"/>
<path d="M11.7073 56.585H9.7561V58.5362H11.7073V56.585Z" fill="black"/>
<path d="M13.6586 56.585H11.7074V58.5362H13.6586V56.585Z" fill="black"/>
<path d="M23.4147 56.585H21.4635V58.5362H23.4147V56.585Z" fill="black"/>
<path d="M31.2195 56.585H29.2683V58.5362H31.2195V56.585Z" fill="black"/>
<path d="M35.122 56.585H33.1708V58.5362H35.122V56.585Z" fill="black"/>
<path d="M42.9268 56.585H40.9756V58.5362H42.9268V56.585Z" fill="black"/>
<path d="M44.8781 56.585H42.9269V58.5362H44.8781V56.585Z" fill="black"/>
<path d="M46.8293 56.585H44.8781V58.5362H46.8293V56.585Z" fill="black"/>
<path d="M50.7317 56.585H48.7805V58.5362H50.7317V56.585Z" fill="black"/>
<path d="M56.5854 56.585H54.6342V58.5362H56.5854V56.585Z" fill="black"/>
<path d="M60.4878 56.585H58.5366V58.5362H60.4878V56.585Z" fill="black"/>
<path d="M62.439 56.585H60.4878V58.5362H62.439V56.585Z" fill="black"/>
<path d="M64.3903 56.585H62.4391V58.5362H64.3903V56.585Z" fill="black"/>
<path d="M66.3415 56.585H64.3903V58.5362H66.3415V56.585Z" fill="black"/>
<path d="M68.2928 56.585H66.3416V58.5362H68.2928V56.585Z" fill="black"/>
<path d="M5.85369 58.5361H3.90247V60.4874H5.85369V58.5361Z" fill="black"/>
<path d="M9.75615 58.5361H7.80493V60.4874H9.75615V58.5361Z" fill="black"/>
<path d="M15.6098 58.5361H13.6586V60.4874H15.6098V58.5361Z" fill="black"/>
<path d="M17.561 58.5361H15.6097V60.4874H17.561V58.5361Z" fill="black"/>
<path d="M25.3659 58.5361H23.4147V60.4874H25.3659V58.5361Z" fill="black"/>
<path d="M27.3171 58.5361H25.3658V60.4874H27.3171V58.5361Z" fill="black"/>
<path d="M29.2684 58.5361H27.3171V60.4874H29.2684V58.5361Z" fill="black"/>
<path d="M35.122 58.5361H33.1708V60.4874H35.122V58.5361Z" fill="black"/>
<path d="M39.0245 58.5361H37.0732V60.4874H39.0245V58.5361Z" fill="black"/>
<path d="M48.7806 58.5361H46.8293V60.4874H48.7806V58.5361Z" fill="black"/>
<path d="M50.7317 58.5361H48.7805V60.4874H50.7317V58.5361Z" fill="black"/>
<path d="M52.6829 58.5361H50.7317V60.4874H52.6829V58.5361Z" fill="black"/>
<path d="M54.6342 58.5361H52.683V60.4874H54.6342V58.5361Z" fill="black"/>
<path d="M58.5367 58.5361H56.5854V60.4874H58.5367V58.5361Z" fill="black"/>
<path d="M60.4878 58.5361H58.5366V60.4874H60.4878V58.5361Z" fill="black"/>
<path d="M62.439 58.5361H60.4878V60.4874H62.439V58.5361Z" fill="black"/>
<path d="M64.3903 58.5361H62.4391V60.4874H64.3903V58.5361Z" fill="black"/>
<path d="M66.3415 58.5361H64.3903V60.4874H66.3415V58.5361Z" fill="black"/>
<path d="M68.2928 58.5361H66.3416V60.4874H68.2928V58.5361Z" fill="black"/>
<path d="M70.2439 58.5361H68.2927V60.4874H70.2439V58.5361Z" fill="black"/>
<path d="M72.1951 58.5361H70.2439V60.4874H72.1951V58.5361Z" fill="black"/>
<path d="M74.1464 58.5361H72.1952V60.4874H74.1464V58.5361Z" fill="black"/>
<path d="M21.4634 60.4873H19.5122V62.4385H21.4634V60.4873Z" fill="black"/>
<path d="M25.3659 60.4873H23.4147V62.4385H25.3659V60.4873Z" fill="black"/>
<path d="M37.0732 60.4873H35.1219V62.4385H37.0732V60.4873Z" fill="black"/>
<path d="M42.9268 60.4873H40.9756V62.4385H42.9268V60.4873Z" fill="black"/>
<path d="M44.8781 60.4873H42.9269V62.4385H44.8781V60.4873Z" fill="black"/>
<path d="M46.8293 60.4873H44.8781V62.4385H46.8293V60.4873Z" fill="black"/>
<path d="M50.7317 60.4873H48.7805V62.4385H50.7317V60.4873Z" fill="black"/>
<path d="M58.5367 60.4873H56.5854V62.4385H58.5367V60.4873Z" fill="black"/>
<path d="M60.4878 60.4873H58.5366V62.4385H60.4878V60.4873Z" fill="black"/>
<path d="M68.2928 60.4873H66.3416V62.4385H68.2928V60.4873Z" fill="black"/>
<path d="M70.2439 60.4873H68.2927V62.4385H70.2439V60.4873Z" fill="black"/>
<path d="M74.1464 60.4873H72.1952V62.4385H74.1464V60.4873Z" fill="black"/>
<path d="M25.3659 62.4385H23.4147V64.3897H25.3659V62.4385Z" fill="black"/>
<path d="M27.3171 62.4385H25.3658V64.3897H27.3171V62.4385Z" fill="black"/>
<path d="M31.2195 62.4385H29.2683V64.3897H31.2195V62.4385Z" fill="black"/>
<path d="M35.122 62.4385H33.1708V64.3897H35.122V62.4385Z" fill="black"/>
<path d="M37.0732 62.4385H35.1219V64.3897H37.0732V62.4385Z" fill="black"/>
<path d="M40.9756 62.4385H39.0244V64.3897H40.9756V62.4385Z" fill="black"/>
<path d="M44.8781 62.4385H42.9269V64.3897H44.8781V62.4385Z" fill="black"/>
<path d="M54.6342 62.4385H52.683V64.3897H54.6342V62.4385Z" fill="black"/>
<path d="M60.4878 62.4385H58.5366V64.3897H60.4878V62.4385Z" fill="black"/>
<path d="M64.3903 62.4385H62.4391V64.3897H64.3903V62.4385Z" fill="black"/>
<path d="M68.2928 62.4385H66.3416V64.3897H68.2928V62.4385Z" fill="black"/>
<path d="M72.1951 62.4385H70.2439V64.3897H72.1951V62.4385Z" fill="black"/>
<path d="M76.0976 62.4385H74.1464V64.3897H76.0976V62.4385Z" fill="black"/>
<path d="M21.4634 64.3906H19.5122V66.3418H21.4634V64.3906Z" fill="black"/>
<path d="M27.3171 64.3906H25.3658V66.3418H27.3171V64.3906Z" fill="black"/>
<path d="M31.2195 64.3906H29.2683V66.3418H31.2195V64.3906Z" fill="black"/>
<path d="M35.122 64.3906H33.1708V66.3418H35.122V64.3906Z" fill="black"/>
<path d="M42.9268 64.3906H40.9756V66.3418H42.9268V64.3906Z" fill="black"/>
<path d="M44.8781 64.3906H42.9269V66.3418H44.8781V64.3906Z" fill="black"/>
<path d="M46.8293 64.3906H44.8781V66.3418H46.8293V64.3906Z" fill="black"/>
<path d="M48.7806 64.3906H46.8293V66.3418H48.7806V64.3906Z" fill="black"/>
<path d="M50.7317 64.3906H48.7805V66.3418H50.7317V64.3906Z" fill="black"/>
<path d="M52.6829 64.3906H50.7317V66.3418H52.6829V64.3906Z" fill="black"/>
<path d="M56.5854 64.3906H54.6342V66.3418H56.5854V64.3906Z" fill="black"/>
<path d="M58.5367 64.3906H56.5854V66.3418H58.5367V64.3906Z" fill="black"/>
<path d="M60.4878 64.3906H58.5366V66.3418H60.4878V64.3906Z" fill="black"/>
<path d="M68.2928 64.3906H66.3416V66.3418H68.2928V64.3906Z" fill="black"/>
<path d="M70.2439 64.3906H68.2927V66.3418H70.2439V64.3906Z" fill="black"/>
<path d="M74.1464 64.3906H72.1952V66.3418H74.1464V64.3906Z" fill="black"/>
<path d="M21.4634 66.3418H19.5122V68.293H21.4634V66.3418Z" fill="black"/>
<path d="M23.4147 66.3418H21.4635V68.293H23.4147V66.3418Z" fill="black"/>
<path d="M27.3171 66.3418H25.3658V68.293H27.3171V66.3418Z" fill="black"/>
<path d="M33.1707 66.3418H31.2195V68.293H33.1707V66.3418Z" fill="black"/>
<path d="M35.122 66.3418H33.1708V68.293H35.122V66.3418Z" fill="black"/>
<path d="M40.9756 66.3418H39.0244V68.293H40.9756V66.3418Z" fill="black"/>
<path d="M42.9268 66.3418H40.9756V68.293H42.9268V66.3418Z" fill="black"/>
<path d="M48.7806 66.3418H46.8293V68.293H48.7806V66.3418Z" fill="black"/>
<path d="M52.6829 66.3418H50.7317V68.293H52.6829V66.3418Z" fill="black"/>
<path d="M54.6342 66.3418H52.683V68.293H54.6342V66.3418Z" fill="black"/>
<path d="M56.5854 66.3418H54.6342V68.293H56.5854V66.3418Z" fill="black"/>
<path d="M58.5367 66.3418H56.5854V68.293H58.5367V66.3418Z" fill="black"/>
<path d="M60.4878 66.3418H58.5366V68.293H60.4878V66.3418Z" fill="black"/>
<path d="M62.439 66.3418H60.4878V68.293H62.439V66.3418Z" fill="black"/>
<path d="M64.3903 66.3418H62.4391V68.293H64.3903V66.3418Z" fill="black"/>
<path d="M66.3415 66.3418H64.3903V68.293H66.3415V66.3418Z" fill="black"/>
<path d="M68.2928 66.3418H66.3416V68.293H68.2928V66.3418Z" fill="black"/>
<path d="M72.1951 66.3418H70.2439V68.293H72.1951V66.3418Z" fill="black"/>
<path d="M76.0976 66.3418H74.1464V68.293H76.0976V66.3418Z" fill="black"/>
<path d="M21.4634 68.293H19.5122V70.2442H21.4634V68.293Z" fill="black"/>
<path d="M25.3659 68.293H23.4147V70.2442H25.3659V68.293Z" fill="black"/>
<path d="M29.2684 68.293H27.3171V70.2442H29.2684V68.293Z" fill="black"/>
<path d="M33.1707 68.293H31.2195V70.2442H33.1707V68.293Z" fill="black"/>
<path d="M35.122 68.293H33.1708V70.2442H35.122V68.293Z" fill="black"/>
<path d="M37.0732 68.293H35.1219V70.2442H37.0732V68.293Z" fill="black"/>
<path d="M42.9268 68.293H40.9756V70.2442H42.9268V68.293Z" fill="black"/>
<path d="M46.8293 68.293H44.8781V70.2442H46.8293V68.293Z" fill="black"/>
<path d="M50.7317 68.293H48.7805V70.2442H50.7317V68.293Z" fill="black"/>
<path d="M54.6342 68.293H52.683V70.2442H54.6342V68.293Z" fill="black"/>
<path d="M62.439 68.293H60.4878V70.2442H62.439V68.293Z" fill="black"/>
<path d="M64.3903 68.293H62.4391V70.2442H64.3903V68.293Z" fill="black"/>
<path d="M68.2928 68.293H66.3416V70.2442H68.2928V68.293Z" fill="black"/>
<path d="M72.1951 68.293H70.2439V70.2442H72.1951V68.293Z" fill="black"/>
<path d="M76.0976 68.293H74.1464V70.2442H76.0976V68.293Z" fill="black"/>
<path d="M21.4634 70.2441H19.5122V72.1954H21.4634V70.2441Z" fill="black"/>
<path d="M25.3659 70.2441H23.4147V72.1954H25.3659V70.2441Z" fill="black"/>
<path d="M33.1707 70.2441H31.2195V72.1954H33.1707V70.2441Z" fill="black"/>
<path d="M46.8293 70.2441H44.8781V72.1954H46.8293V70.2441Z" fill="black"/>
<path d="M48.7806 70.2441H46.8293V72.1954H48.7806V70.2441Z" fill="black"/>
<path d="M52.6829 70.2441H50.7317V72.1954H52.6829V70.2441Z" fill="black"/>
<path d="M54.6342 70.2441H52.683V72.1954H54.6342V70.2441Z" fill="black"/>
<path d="M56.5854 70.2441H54.6342V72.1954H56.5854V70.2441Z" fill="black"/>
<path d="M58.5367 70.2441H56.5854V72.1954H58.5367V70.2441Z" fill="black"/>
<path d="M60.4878 70.2441H58.5366V72.1954H60.4878V70.2441Z" fill="black"/>
<path d="M62.439 70.2441H60.4878V72.1954H62.439V70.2441Z" fill="black"/>
<path d="M72.1951 70.2441H70.2439V72.1954H72.1951V70.2441Z" fill="black"/>
<path d="M74.1464 70.2441H72.1952V72.1954H74.1464V70.2441Z" fill="black"/>
<path d="M76.0976 70.2441H74.1464V72.1954H76.0976V70.2441Z" fill="black"/>
<path d="M23.4147 72.1953H21.4635V74.1465H23.4147V72.1953Z" fill="black"/>
<path d="M27.3171 72.1953H25.3658V74.1465H27.3171V72.1953Z" fill="black"/>
<path d="M31.2195 72.1953H29.2683V74.1465H31.2195V72.1953Z" fill="black"/>
<path d="M37.0732 72.1953H35.1219V74.1465H37.0732V72.1953Z" fill="black"/>
<path d="M40.9756 72.1953H39.0244V74.1465H40.9756V72.1953Z" fill="black"/>
<path d="M46.8293 72.1953H44.8781V74.1465H46.8293V72.1953Z" fill="black"/>
<path d="M48.7806 72.1953H46.8293V74.1465H48.7806V72.1953Z" fill="black"/>
<path d="M52.6829 72.1953H50.7317V74.1465H52.6829V72.1953Z" fill="black"/>
<path d="M58.5367 72.1953H56.5854V74.1465H58.5367V72.1953Z" fill="black"/>
<path d="M60.4878 72.1953H58.5366V74.1465H60.4878V72.1953Z" fill="black"/>
<path d="M62.439 72.1953H60.4878V74.1465H62.439V72.1953Z" fill="black"/>
<path d="M68.2928 72.1953H66.3416V74.1465H68.2928V72.1953Z" fill="black"/>
<path d="M76.0976 72.1953H74.1464V74.1465H76.0976V72.1953Z" fill="black"/>
<path d="M21.4634 74.1465H19.5122V76.0977H21.4634V74.1465Z" fill="black"/>
<path d="M23.4147 74.1465H21.4635V76.0977H23.4147V74.1465Z" fill="black"/>
<path d="M29.2684 74.1465H27.3171V76.0977H29.2684V74.1465Z" fill="black"/>
<path d="M31.2195 74.1465H29.2683V76.0977H31.2195V74.1465Z" fill="black"/>
<path d="M33.1707 74.1465H31.2195V76.0977H33.1707V74.1465Z" fill="black"/>
<path d="M39.0245 74.1465H37.0732V76.0977H39.0245V74.1465Z" fill="black"/>
<path d="M42.9268 74.1465H40.9756V76.0977H42.9268V74.1465Z" fill="black"/>
<path d="M50.7317 74.1465H48.7805V76.0977H50.7317V74.1465Z" fill="black"/>
<path d="M52.6829 74.1465H50.7317V76.0977H52.6829V74.1465Z" fill="black"/>
<path d="M54.6342 74.1465H52.683V76.0977H54.6342V74.1465Z" fill="black"/>
<path d="M56.5854 74.1465H54.6342V76.0977H56.5854V74.1465Z" fill="black"/>
<path d="M68.2928 74.1465H66.3416V76.0977H68.2928V74.1465Z" fill="black"/>
<path d="M70.2439 74.1465H68.2927V76.0977H70.2439V74.1465Z" fill="black"/>
<path d="M72.1951 74.1465H70.2439V76.0977H72.1951V74.1465Z" fill="black"/>
<path d="M74.1464 74.1465H72.1952V76.0977H74.1464V74.1465Z" fill="black"/>
<path d="M76.0976 74.1465H74.1464V76.0977H76.0976V74.1465Z" fill="black"/>
<path d="M15.5122 3.90234H5.95125H3.90247V5.95112V15.5121V17.5609H5.95125H15.5122H17.561V15.5121V5.95112V3.90234H15.5122ZM15.5122 15.5121H5.95125V5.95112H15.5122V15.5121Z" fill="black"/>
<path d="M74.0488 3.90234H64.4879H62.4391V5.95112V15.5121V17.5609H64.4879H74.0488H76.0976V15.5121V5.95112V3.90234H74.0488ZM74.0488 15.5121H64.4879V5.95112H74.0488V15.5121Z" fill="black"/>
<path d="M15.5122 62.4385H5.95125H3.90247V64.4873V74.0482V76.097H5.95125H15.5122H17.561V74.0482V64.4873V62.4385H15.5122ZM15.5122 74.0482H5.95125V64.4873H15.5122V74.0482Z" fill="black"/>
<path d="M13.6586 7.80469H7.80493V13.6583H13.6586V7.80469Z" fill="black"/>
<path d="M72.1952 7.80469H66.3416V13.6583H72.1952V7.80469Z" fill="black"/>
<path d="M13.6586 66.3418H7.80493V72.1955H13.6586V66.3418Z" fill="black"/>
</g>
<defs>
<clipPath id="clip0_135_2133">
<rect width="80" height="80" fill="white"/>
</clipPath>
</defs>
</svg>
