<svg width="48" height="48" viewBox="0 0 48 48" fill="none" xmlns="http://www.w3.org/2000/svg">
<rect width="48" height="48" rx="24" fill="#EEF0F6"/>
<path d="M13.4467 31.1266C13.18 30.68 12.52 30.7333 12.3267 31.2133L11.0667 34.36C11.0667 34.36 11.0667 34.36 11.0667 34.3666C11.0133 34.5 10.9867 34.6533 10.9867 34.8066C10.9867 35.4666 11.5533 36.0066 12.2133 36.0066H15.24C15.7267 36.0066 16.0267 35.48 15.78 35.06L13.4467 31.1266Z" fill="#FF6D00"/>
<path d="M27.8267 12.7533C27.66 12.3267 27.2533 12.0267 26.7733 12H21.64L30.9267 35.2133C31.1133 35.6867 31.5733 36 32.0867 36H35.32C36.1867 36 36.78 35.1267 36.4533 34.32L27.8267 12.7533Z" fill="#1FB295"/>
<path d="M20.7867 12C20.28 12 19.8467 12.3133 19.6733 12.7533L14.86 24.7933L13.74 27.6C13.66 27.7933 13.6333 28.0133 13.6667 28.24C13.7533 28.82 14.2667 29.2467 14.8533 29.2467C14.8533 29.2467 14.8533 29.2467 14.86 29.2467H19H20.7733C20.1133 29.2467 19.5733 28.7067 19.5733 28.0467C19.5733 27.8867 19.6067 27.74 19.66 27.6L20.7867 24.7867L25.6 12.7467C25.78 12.3067 26.2067 11.9933 26.7133 11.9933H20.7867V12Z" fill="#FF6D00"/>
<path d="M34.52 23.6667H21.2333L19.66 27.6067C19.6067 27.7467 19.5733 27.8934 19.5733 28.0534C19.5733 28.7134 20.1133 29.2534 20.7733 29.2534H35.7867C36.6533 29.2534 37.2467 28.38 36.92 27.5734L35.6733 24.4534C35.4867 23.98 35.0267 23.6667 34.5133 23.6667H34.52Z" fill="#FFC41D"/>
</svg>
