<svg width="48" height="48" viewBox="0 0 48 48" fill="none" xmlns="http://www.w3.org/2000/svg">
<mask id="path-1-inside-1_9_1029" fill="white">
<path d="M0 24C0 10.7452 10.7452 0 24 0C37.2548 0 48 10.7452 48 24C48 37.2548 37.2548 48 24 48C10.7452 48 0 37.2548 0 24Z"/>
</mask>
<path d="M0 24C0 10.7452 10.7452 0 24 0C37.2548 0 48 10.7452 48 24C48 37.2548 37.2548 48 24 48C10.7452 48 0 37.2548 0 24Z" fill="#FFD737"/>
<path d="M0 23C0 9.74517 10.7452 -1 24 -1C37.2548 -1 48 9.74517 48 23V24C48 11.2975 37.2548 1 24 1C10.7452 1 0 11.2975 0 24V23ZM0 24M48 48H0H48M48 48M0 48V0V48M0 48M48 0V48V0" fill="white" mask="url(#path-1-inside-1_9_1029)"/>
<path d="M36.27 34.015L33.09 31.605C33.565 30.4 33.88 29.095 33.88 27.6V20.24C33.88 18.31 33.485 16.63 32.7 15.19C31.915 13.75 30.81 12.64 29.385 11.85C27.96 11.06 26.295 10.66 24.39 10.66C22.485 10.66 20.82 11.055 19.395 11.85C17.97 12.645 16.865 13.755 16.08 15.19C15.295 16.625 14.9 18.31 14.9 20.24V27.6C14.9 29.52 15.295 31.2 16.08 32.64C16.865 34.08 17.97 35.2 19.395 35.99C20.82 36.78 22.485 37.18 24.39 37.18C26.295 37.18 27.96 36.785 29.385 35.99C29.855 35.73 30.24 35.375 30.64 35.04L33.665 37.335L36.275 34.01L36.27 34.015ZM24.385 32.28C23.05 32.28 21.98 31.865 21.18 31.03C20.38 30.195 19.975 29.095 19.975 27.725V20.115C19.975 18.735 20.375 17.63 21.18 16.8C21.985 15.97 23.055 15.56 24.385 15.56C25.715 15.56 26.79 15.975 27.59 16.8C28.39 17.625 28.795 18.735 28.795 20.115V27.725C28.795 27.93 28.72 28.09 28.705 28.285L26.225 26.405L23.615 29.71L26.4 31.825C25.805 32.1 25.15 32.28 24.38 32.28H24.385Z" fill="#353843"/>
</svg>
