<svg width="112" height="36" viewBox="0 0 112 36" fill="none" xmlns="http://www.w3.org/2000/svg">
<g clip-path="url(#clip0_1_3)">
<path d="M3.69123 28.6848C3.29451 28.0162 2.30337 28.0932 2.01412 28.8149L0.127375 33.5298C0.127375 33.5298 0.123395 33.5391 0.122068 33.543C0.0437853 33.7473 0 33.9689 0 34.1997C0 35.1894 0.850495 35.9987 1.84031 35.9987H6.38203C7.10913 35.9987 7.55893 35.208 7.18874 34.5831L3.69123 28.6835V28.6848Z" fill="#FF6D00"/>
<path d="M25.2628 1.12765V1.13031C25.008 0.492188 24.4003 0.0344929 23.6799 0H15.9803L29.9106 34.8206C30.1959 35.533 30.8845 36 31.6514 36H36.501C37.7999 36 38.6889 34.6879 38.2059 33.482L25.2628 1.12765Z" fill="#1FB295"/>
<path d="M14.7012 0C13.9436 0 13.2961 0.466981 13.0294 1.13031L5.81019 19.19L4.12645 23.3995C4.12645 23.3995 4.12512 23.4035 4.12379 23.4048C4.00703 23.694 3.96457 24.0203 4.01765 24.3613C4.15166 25.2302 4.91856 25.8763 5.79825 25.875C5.80223 25.875 5.80621 25.875 5.81152 25.875H12.025H14.684C13.6902 25.875 12.8835 25.0697 12.8835 24.0747C12.8835 23.8386 12.9286 23.6131 13.0109 23.4074L14.6973 19.1913L21.9205 1.125V1.13296C22.1859 0.469634 22.8334 0 23.591 0L14.7012 0Z" fill="#FF6D00"/>
<path d="M35.3055 17.4985H15.3752L13.0148 23.4061C12.9326 23.6131 12.8875 23.8373 12.8875 24.0734C12.8875 25.0671 13.6928 25.8737 14.688 25.8737H37.2135C38.5124 25.8737 39.4014 24.5629 38.9184 23.357L37.0476 18.6779C36.7623 17.9655 36.0737 17.4985 35.3068 17.4985H35.3055Z" fill="#FFC41D"/>
<path d="M56.9115 2.49808H54.2765L49.1377 14.0254H51.8723L52.8939 11.5551H58.2463L59.268 14.0254H62.0676L56.9129 2.49808H56.9115ZM53.7484 9.52934L55.5768 5.11557L57.4051 9.52934H53.7484ZM78.832 7.14136C79.6387 7.14136 80.3473 7.52079 80.8249 8.36056L82.8178 7.28995C82.1756 5.84125 80.7095 5.03331 78.848 5.03331C75.9661 5.03331 73.9069 6.92777 73.9069 9.59434C73.9069 12.2609 75.9661 14.1554 78.848 14.1554C80.7095 14.1554 82.1743 13.3315 82.8178 11.916L80.8249 10.8295C80.3473 11.6851 79.6387 12.0486 78.832 12.0486C77.5304 12.0486 76.5101 11.1425 76.5101 9.59434C76.5101 8.04614 77.5317 7.14004 78.832 7.14004V7.14136ZM72.1448 14.0254V8.95357C72.1448 6.25251 70.5633 5.03464 68.4722 5.03464C67.2701 5.03464 66.2325 5.4459 65.5412 6.20342V5.16598H63.0866V14.0254H65.6553V9.64475C65.6553 8.0143 66.5443 7.25678 67.7796 7.25678C68.9153 7.25678 69.5748 7.9148 69.5748 9.34758V14.024H72.1435L72.1448 14.0254ZM99.9286 14.1567C102.745 14.1567 104.787 12.2622 104.787 9.59567C104.787 6.9291 102.745 5.03464 99.9286 5.03464C97.1117 5.03464 95.0538 6.9291 95.0538 9.59567C95.0538 12.2622 97.113 14.1567 99.9286 14.1567ZM99.9286 7.14136C101.213 7.14136 102.185 8.06339 102.185 9.59567C102.185 11.1279 101.214 12.05 99.9286 12.05C98.6429 12.05 97.6557 11.1279 97.6557 9.59567C97.6557 8.06339 98.6442 7.14136 99.9286 7.14136ZM108.954 6.33476V5.16598H106.499V14.0254H109.068V9.84243C109.068 8.14564 110.007 7.3722 111.423 7.3722C111.621 7.3722 111.785 7.38812 111.999 7.40537V5.03331C110.632 5.03331 109.577 5.47774 108.952 6.33476H108.954ZM90.7217 9.34758V14.024H93.2905V8.95224C93.2905 6.25118 91.7089 5.03331 89.6178 5.03331C88.4807 5.03331 87.4936 5.39549 86.8009 6.08668V1.80557H84.2322V14.024H86.8009V9.64343C86.8009 8.01297 87.6899 7.25546 88.9252 7.25546C90.0623 7.25546 90.7204 7.91347 90.7204 9.34626L90.7217 9.34758ZM65.5704 21.8765C64.3683 21.8765 63.3307 22.2877 62.6395 23.0453V22.0078H60.1848V30.8672H62.7536V26.4866C62.7536 24.8561 63.6425 24.0986 64.8778 24.0986C66.0136 24.0986 66.673 24.7566 66.673 26.1894V30.8659H69.2417V25.7941C69.2417 23.093 67.6602 21.8752 65.5691 21.8752L65.5704 21.8765ZM51.7528 26.0594H57.1053V23.9845H51.7528V21.4811H57.8138V19.3399H49.1005V30.8672H58.0274V28.726H51.7528V26.0581V26.0594ZM88.7925 30.8672H91.3612V22.0078H88.7925V30.8672ZM78.5813 23.1448C77.9059 22.2877 76.8843 21.8765 75.6503 21.8765C73.1957 21.8765 71.22 23.5733 71.22 26.1576C71.22 28.7419 73.197 30.4387 75.6503 30.4387C76.8033 30.4387 77.7746 30.0765 78.4499 29.3349V29.713C78.4499 31.3103 77.6591 32.1341 75.848 32.1341C74.7122 32.1341 73.4756 31.7388 72.7193 31.1299L71.6977 32.9739C72.7353 33.7805 74.3659 34.1931 76.0457 34.1931C79.2407 34.1931 81.02 32.6781 81.02 29.384V22.0065H78.5826V23.1434L78.5813 23.1448ZM76.1598 28.332C74.8091 28.332 73.8206 27.459 73.8206 26.1589C73.8206 24.8588 74.8091 23.9845 76.1598 23.9845C77.5105 23.9845 78.4818 24.8575 78.4818 26.1589C78.4818 27.4604 77.5105 28.332 76.1598 28.332ZM108.309 21.8765C107.172 21.8765 106.185 22.2387 105.492 22.9298V18.6487H102.923V30.8672H105.492V26.4866C105.492 24.8561 106.381 24.0986 107.616 24.0986C108.753 24.0986 109.411 24.7566 109.411 26.1894V30.8659H111.98V25.7941C111.98 23.093 110.399 21.8752 108.307 21.8752L108.309 21.8765ZM95.7743 24.6425C95.7743 24.1809 96.2678 23.8187 97.4209 23.8187C98.2276 23.8187 99.1006 23.9832 99.9737 24.478L100.829 22.6499C99.9896 22.1564 98.6389 21.8765 97.4209 21.8765C94.8349 21.8765 93.3196 23.0625 93.3196 24.742C93.3196 28.2829 98.6721 26.801 98.6721 28.2497C98.6721 28.7432 98.2276 29.0563 97.0414 29.0563C95.9547 29.0563 94.7526 28.7101 93.9618 28.1993L93.1047 30.0433C93.9287 30.5873 95.4439 30.9985 96.9419 30.9985C99.5929 30.9985 101.125 29.8298 101.125 28.182C101.125 24.6903 95.7729 26.1563 95.7729 24.6412L95.7743 24.6425ZM90.0769 17.9071C89.1216 17.9071 88.4794 18.5333 88.4794 19.3399C88.4794 20.1465 89.1216 20.7727 90.0769 20.7727C91.0322 20.7727 91.6744 20.1465 91.6744 19.2908C91.6744 18.5002 91.0322 17.9071 90.0769 17.9071ZM83.6205 30.8672H86.1893V18.6487H83.6205V30.8672Z" fill="black"/>
</g>
<defs>
<clipPath id="clip0_1_3">
<rect width="112" height="36" fill="white"/>
</clipPath>
</defs>
</svg>
